<?xml version="1.0" encoding="utf-8"?>
<!-- Generator: Adobe Illustrator 21.0.0, SVG Export Plug-In . SVG Version: 6.00 Build 0)  -->
<svg version="1.1" xmlns="http://www.w3.org/2000/svg" xmlns:xlink="http://www.w3.org/1999/xlink" x="0px" y="0px"
	 viewBox="0 0 100 100" style="enable-background:new 0 0 100 100;" xml:space="preserve">
<style type="text/css">
	.st0{fill:#FFFFFF;}
</style>
<g id="Layer_1">
	<g>
		<path class="st0" d="M50.1,99.8c-10.1,0-20.2,0-30.3,0c-9.2,0-17.3-6.7-19-15.7c-0.2-1.2-0.4-2.5-0.4-3.7c0-20.2,0-40.3,0-60.5
			c0-8.4,5.5-15.9,13.5-18.5c1.9-0.6,3.8-0.9,5.8-0.9c20.3,0,40.6,0,60.9,0c4.6,0,8.7,1.6,12.2,4.6c3.5,3,5.8,6.8,6.6,11.4
			c0.2,1,0.3,2.1,0.3,3.1c0,20.4,0,40.7,0,61.1c0,5.5-2.2,10.1-6.1,13.8c-2.9,2.8-6.4,4.5-10.4,5.1c-1,0.2-2,0.2-3,0.2
			C70.3,99.8,60.2,99.8,50.1,99.8z M50.1,13.6c-3,0-6,0.3-8.9,0.8c-4.1,0.8-8,2.1-11.7,3.9c-4.8,2.5-9.1,5.7-12.4,10
			c-3.4,4.3-5.4,9.2-5.8,14.7c-0.2,3.4,0.2,6.8,1.4,10.1c2,5.6,5.5,10.1,10.1,13.8c4.1,3.2,8.6,5.5,13.6,6.9c2.3,0.7,4.6,1.2,7,1.5
			c1,0.1,2,0.4,2.8,1c0.6,0.4,1,0.9,1,1.6c0.1,0.5,0.1,1.1,0.1,1.6c-0.1,1.3-0.3,2.5-0.5,3.8c-0.1,0.7-0.3,1.4-0.2,2.2
			c0.1,0.7,0.6,1.2,1.4,1.2c0.5,0,1-0.1,1.4-0.3c1.4-0.7,2.9-1.3,4.2-2.1c7.6-4.4,14.8-9.3,21.4-15c3.2-2.7,6.1-5.7,8.6-9.2
			c2.8-3.9,4.7-8.2,5.1-13.1c0.2-2.6,0.1-5.3-0.5-7.8c-1.1-4.9-3.5-9.1-6.9-12.8c-4-4.4-8.9-7.5-14.4-9.6
			C61.6,14.6,55.9,13.6,50.1,13.6z"/>
		<path class="st0" d="M50.1,46.2c0,0.1,0,0.2,0,0.4c0,2.6,0,5.2,0,7.8c0,1.2-0.8,2.1-1.9,2.2C47,56.7,46,56,45.8,54.8
			c0-0.2,0-0.3,0-0.5c0-5,0-10,0-15c0-1,0.5-1.8,1.5-2.1c0.9-0.3,1.9,0,2.5,0.8c2.2,3,4.4,6.1,6.6,9.2c0.1,0.1,0.2,0.2,0.3,0.4
			c0-0.2,0-0.3,0-0.5c0-2.6,0-5.2,0-7.9c0-1.1,0.8-2.1,1.9-2.2c1.2-0.1,2.2,0.6,2.4,1.8c0,0.1,0,0.3,0,0.4c0,5,0,10,0,15
			c0,1-0.6,1.8-1.5,2.1c-0.9,0.3-1.9,0-2.4-0.8c-2.2-3.1-4.4-6.1-6.5-9.2C50.3,46.4,50.2,46.2,50.1,46.2
			C50.1,46.1,50.1,46.1,50.1,46.2z"/>
		<path class="st0" d="M67.4,47.9c0,1.4,0,2.9,0,4.3c0.1,0,0.2,0,0.4,0c2,0,4,0,6.1,0c1.1,0,2.1,0.8,2.2,1.9
			c0.1,1.1-0.6,2.1-1.7,2.4c-0.2,0-0.3,0-0.5,0c-2.9,0-5.7,0-8.6,0c-1.3,0-2.2-0.9-2.2-2.2c0-5,0-10,0-15.1c0-1.2,0.9-2.2,2.2-2.2
			c2.9,0,5.7,0,8.6,0c1.2,0,2.2,0.9,2.2,2.2c0,1.2-1,2.1-2.2,2.1c-2,0-4,0-6,0c-0.1,0-0.2,0-0.4,0c0,0.7,0,1.4,0,2.2
			c0.1,0,0.2,0,0.4,0c2,0,4,0,6.1,0c1.1,0,2.1,0.8,2.2,1.9c0.1,1.1-0.6,2.1-1.7,2.4c-0.2,0-0.3,0-0.5,0c-2,0-4,0-6,0
			C67.6,47.9,67.5,47.9,67.4,47.9z"/>
		<path class="st0" d="M28.5,52.2c0.2,0,0.3,0,0.4,0c2,0,4.1,0,6.1,0c1.2,0,2.1,1,2.1,2.2c0,1.2-0.9,2.1-2.1,2.1c-2.9,0-5.8,0-8.7,0
			c-1.2,0-2.1-1-2.1-2.1c0-5.1,0-10.2,0-15.2c0-1.2,1-2.1,2.2-2.1c1.2,0,2.1,0.9,2.2,2.1c0,4.2,0,8.4,0,12.6
			C28.5,51.9,28.5,52.1,28.5,52.2z"/>
		<path class="st0" d="M43.6,46.8c0,2.5,0,5,0,7.5c0,1.1-0.8,2.1-1.9,2.2c-1.1,0.1-2.1-0.6-2.4-1.7c0-0.2,0-0.3,0-0.5c0-5,0-10,0-15
			c0-1.2,0.9-2.2,2.2-2.2c1.2,0,2.2,0.9,2.2,2.2C43.6,41.8,43.6,44.3,43.6,46.8z"/>
	</g>
</g>
<g id="Layer_2">
</g>
<g id="Layer_3">
</g>
</svg>
