<?xml version="1.0" encoding="utf-8"?>
<!-- Generator: Adobe Illustrator 21.0.0, SVG Export Plug-In . SVG Version: 6.00 Build 0)  -->
<svg version="1.1" id="Layer_1" xmlns="http://www.w3.org/2000/svg" xmlns:xlink="http://www.w3.org/1999/xlink" x="0px" y="0px"
	 viewBox="0 0 1280 768" style="enable-background:new 0 0 1280 768;" xml:space="preserve">
<style type="text/css">
	.st0{fill:#5D68ED;}
</style>
<g>
	<path class="st0" d="M23.8,139c0,0-1.6,0-2.4,0c-0.8,0-2.1,1.3-2.1,1.3s-2.1,0.8-2.7,1.6c-0.5,0.8,1.1,1.9,0,2.9
		c-1.1,1.1-0.8,2.7-1.3,4.2c-0.5,1.6,0.5,1.9,0,3.2c-0.5,1.3,1.6,4,1.6,4s3.6,1.6,2.6,2.4c-1,0.8,0,2.4,0,2.4l4.3,3.7
		c0,0,2.7,1.3,3.2,2.1c0.5,0.8,3.5,2.7,3.7,4c0.3,1.3,1.9,3.2,2.1,4c0.3,0.8,2.4,3.2,2.4,3.2l1.9,2.4c0,0,3.2,2.1,4,2.9
		c0.8,0.8,3.5,2.7,4,3.7c0.5,1.1,2.4,2.7,2.4,2.7h3.5h5c0,0,1.1,2,2.4,3.7c1.3,1.7,4.9,6.8,5.8,8.4c0.9,1.6,4.6,4.6,4.6,4.6
		s-0.3,0.5,0,1.2c0.3,0.7,0.8,0.8,1.6,2.1c0.8,1.3,1.6,0.8,3.3,2.8s3.8,2.1,4,3.8c0.1,1.7-0.4,1.3,0,4.4c0.4,3.1-1.9,5.4,0.9,7.6
		c2.8,2.1,5.3,2.7,5.8,2.5c0.5-0.1,1.6-2,2.7-0.5c1.1,1.5,4.4,2.9,5.6,4c1.2,1.1,4.1,2.5,5.6,4.5c1.5,2,4,4,4.5,4.9
		c0.5,0.9,2.9,2.3,2.9,2.3s2,1.3,2.1,2.3c0.1,0.9-0.5,2.3-0.9,2.9c-0.4,0.7-0.4,2.4,0,3.6c0.4,1.2,3.1,8.1,3.5,9.4
		c0.4,1.3,1.3,4.4,2,6.6c0.7,2.3,2.7,7.7,2.7,7.7s-0.4,1.6,0,3.6c0.4,2-0.4,4.2,1.2,5.3c1.6,1.1,4.1,0.5,4.1,0.5s3.3,2.3,3.3,2.7
		c0,0.4,3.7,0.8,4.1,1.5c0.4,0.7,2.7,2.1,3.1,3.5c0.4,1.3,1.9,4.2,2.5,5.8c0.7,1.6,1.9,1.7,3.3,3.3c1.5,1.6,2.4,3.2,2.8,4.8
		c0.4,1.6,0.7,2.1,2.3,3.2c1.6,1.1,2.1,2.8,2.4,3.3c0.3,0.5,2,2.5,2.1,4.9c0.1,2.4-1.6,3.5,0,5.3c1.6,1.9,3.3,3.1,4.1,3.8
		c0.8,0.8,1.5,4.1,1.5,4.8c0,0.7,1.5,4.9,2.5,6.8c1.1,1.9,3.8,4.5,4.4,5.3c0.5,0.8,1.2,2.1,1.2,3.2c0,1.1,0.5,1.5,0,2
		c-0.5,0.5-0.9,0.4-0.9,2.1c0,1.7,1.7,5,2.9,7.2c1.2,2.1,3.2,3.7,3.2,3.7s1.1,1.6,2.4,2.7c1.3,1.1,3.2,2.8,3.8,4.5
		c0.7,1.7,3.1,6.5,5.6,9.7c2.5,3.2,6,6.2,8.4,7.7c2.4,1.5,8.6,3.5,9.6,7.2c0.9,3.7-0.7,5.3,1.3,8c2,2.7,7.2,7,8.6,8.2
		c1.5,1.2,6.9,6.8,8.1,8.2c1.2,1.5,4.1,1.5,6.8,3.2c2.7,1.7,3.7,3.5,5.7,5.7c2,2.3,2.7,2.4,6.4,3.8c3.7,1.5,8.2,5.6,9.4,8.4
		c1.2,2.8,3.8,5,6.1,6.9c2.3,1.9,4.6,2.8,5.8,5.2c1.2,2.4,2.1,4,3.8,5.8c1.7,1.9,3.8,2.4,3.8,2.4s1.1-1.5,1.1-2.1
		c0-0.7,1.2-2.9,0-4.1c-1.2-1.2-3.6-5.3-2.8-6c0.8-0.7,3.3,0.1,6.2,2.5c2.9,2.4,6.8,4.8,8.1,5.4c1.3,0.7,3.1,2.5,3.6,1.5
		c0.5-1.1,0.7-0.9,0-2.3c-0.7-1.3-1.3-3.1-1.3-3.1l1.8-2.5v-1.1c0,0,3.4,1.2,4.3,2.8c0.9,1.6,8.5,6.9,8.5,6.9s2.1,0.4,2.7-1.9
		c0.5-2.3,0.5-11.4,1.1-13.5c0.5-2.1,0.9-7.2,0.9-9c0-1.9,0.8-2.1,0.8-2.9c0-0.8-2.1-1.3-1.7-3.3c0.4-2,1.2-2.4,1.7-4
		c0.5-1.6,0.5-3.2,0.7-4.2c0.4-2.7-0.5-3.6-0.5-6c0-2.4-1.3-5.2-0.4-6.6c0.9-1.5,3.5-4.9,3.5-6.2c0-1.3-3.3-3.2-3.2-6.1
		c0.1-2.9,0.8-4.8,1.5-6c0.7-1.2,2.5-2.8,2.9-3.5c0.4-0.7,2.5-2.4,2.5-3.3c0-0.9,0-3.7,0-3.7s0-2-1.2-2.1c-1.2-0.1-4.5-0.9-4.8-2.8
		c-0.3-1.9,0.9-4.8-0.8-5.7c-1.7-0.9-4-1.2-4.5-2.8c-0.5-1.6-0.9-3.8-1.1-4.8c-0.1-0.9-3.8-1.6-5.3-2.1c-1.5-0.5-4.6-1.5-5.2-1.2
		c-0.5,0.3-2,1.5-2.9,1.1c-0.9-0.4-6.1-2.9-6.1-2.9V355c0,0,2.1-3.1-0.1-4.6c-2.3-1.6-4.1-2.1-4.1-2.1s-2.3,1.5-2.7,0
		c-0.4-1.5-2-3.3-2.1-4.4c-0.1-1.1-0.8-3.2-0.8-3.2s-1.7-4.6-1.6-5.6c0.1-0.9,0.4-3.2,0.4-4.6c0-1.5-0.9-2.1-0.4-3.7
		c0.5-1.6,0.5-2.5,0.5-2.5l-2.9-2.3c0,0-2.4,0.4-4,0.4c-1.6,0-5.8-0.8-6.2-0.8c-0.4,0-1.1,0.1-2.9,0.1c-1.9,0-4.4-1.6-5.2-2.1
		c-0.8-0.5-7.6-4.2-6.6-6.2c0.9-2,1.3-3.1,3.1-4.4c1.7-1.3,2.4-1.3,3.5-2.3c1.1-0.9,2.9-2.5,2.9-2.5s2.7-0.3,2.5-1.5
		c-0.1-1.2-3.7-2-4.9-2.7c-1.2-0.7-4.1-2.4-1.9-3.5c2.3-1.1,7.4-1.6,7.3-2.3c-0.1-0.7-0.8-2.8-0.9-4.4c-0.1-1.6,1.2-4-1.6-5.6
		c-2.8-1.6-1.5-0.8-3.5-2c-2-1.2-3.8-2.8-3.8-2.8s-1.2-2.1-2.4-1.6c-1.2,0.5-2.1,0.5-2.1,0.5s-0.8,1.9-2.3,1.9
		c-1.5,0-2.4-0.7-3.5-1.2c-1.1-0.5-2.3-0.8-2.8-2c-0.5-1.2-0.7-2.3-1.6-2.4c-0.9-0.1-4.9,0.3-4.9,0.3l-3.7-0.1l-1.3-1.6
		c0,0-6-3.1-6.6-4.6c-0.7-1.6-2.8-2.7-2.8-5.3c0-2.7,0.1-4.5,0.1-6c0-1.5-0.5-3.2-2-3.5c-1.5-0.3-4.5-2.9-5.2-3.7
		c-0.7-0.8-3.6-2.3-4.2-2.3c-0.7,0-2.1,0.1-4,0.3c-1.9,0.1-4.8-1.2-5-2c-0.3-0.8-1.9-2.5-2-3.5c-0.1-0.9-0.4-2.9-0.5-3.7
		c-0.1-0.8-0.8-2.8-1.6-2.8c-0.8,0-2.1-2.4-2.4-2.8c-0.3-0.4-1.1-3.5-2.5-4c-1.5-0.5-4.6-0.9-5.3,0c-0.7,0.9-2.1,1.1-1.7,2.5
		c0.4,1.5,1.2,1.3,1.5,1.9c0.3,0.5,0.4,2.1,0.4,2.1l-2.1,0.3c0,0-2-1.5-2.4-1.6s-2.7-2.1-3.7-2.3c-1.1-0.1-2.1,0.7-2.9-1.6
		c-0.8-2.3-1.7-4-2.9-5.6c-1.2-1.6-2.4-4.1-2.4-4.1s-2.4-2.5-3.1-1.7c-0.7,0.8-0.5,1.9-0.1,2.8c0.4,0.9,0.7,1.7,0.4,2.1
		c-0.3,0.4-1.1,0.4-1.1,0.4l-0.8-2.7l0.1-2.4l-1.2,0.3c0,0,0.4,1.2-0.3,2c-0.7,0.8-1.7,1.3-1.7,1.3l-0.5-1.3l0.7-2.3l-0.1-2.5
		c0,0,0.3-1.7,0.3-2.1c0-0.4,0.4-1.9-0.3-2.4c-0.7-0.5-1.5-0.9-1.5-0.9s-1.5-1.6-1.9-2.1c-0.4-0.5-1.3-3.1-3.2-3.8
		c-1.9-0.8-3.8-1.7-4.9-2.5c-1.1-0.8-5.2-4.6-6.1-4.9c-0.9-0.3-3.8-3.8-6.1-4.4c-2.3-0.5-5-1.7-5.8-2.3c-0.8-0.5-3.3-1.2-3.3-2.7
		c0-1.5,1.6-2.5-0.5-3.3c-2.1-0.8-5-2.3-5-2.3s-3.5-2.7-4.4-3.3c-0.9-0.7-2-0.5-1.9-2.4c0.1-1.9,0-3.3,0.4-4.5
		c0.4-1.2,1.5-1.9,0.1-2.7c-1.3-0.8-2.7-2.3-4.1-2.7c-1.5-0.4-2.9-0.1-3.1-1.1c-0.1-0.9-0.3-3.5-0.7-4.6c-0.4-1.2-3.7-3.1-4.6-4.4
		c-0.9-1.3-1.5-2.7-2.7-4.5c-1.2-1.9-4.2-5.7-5.3-5.7c-1.1,0-3.7,2.4-3.7,2.4s-1.6-0.3-2.3-0.4c-0.7-0.1-4.4-1.6-4.4-1.6
		s-9.4,0.1-10.2,0.5c-0.8,0.4-9.8,0.4-9.8,0.4s-2.3-1.5-3.8-1.7c-1.6-0.3-3.5-0.9-4-1.3c-0.5-0.4-2.3-2.8-2.8-3.3
		c-0.5-0.5-5-4.1-6.1-3.7c-1.1,0.4-2.5-0.3-3.1,0C26.7,139.3,23.8,139,23.8,139z"/>
	<path class="st0" d="M202.8,254.3c0.9,0.4,3.2,1.3,3.7,2.4c0.5,1.1,1.1,1.9,2,1.6c0.9-0.3,1.2-0.9,1.2-2c0-1.1,0.5-2.9,0-3.6
		c-0.5-0.7-3.3-1.5-3.3-1.5h-3.6c0,0-3.7,0.8-3.7,0c0-0.8-1.7-1.5-1.6-0.7c0.1,0.8,1.1,1.6,1.1,1.6s0.7,0.3,1.2,1.1
		c0.5,0.8,2.5,1,2.5,1L202.8,254.3z"/>
	<path class="st0" d="M205.5,257.5c0,0-2.1-0.1-2.4,0c-0.3,0.1-0.1,0.4,0,1.6s1,1.1,0.6,2.7c-0.4,1.6-0.6,1.6-0.8,2.4
		c-0.2,0.8-0.8,0.9,0,2c0.8,1.1,1.3,1.1,1.7,1.9c0.4,0.8,0,1.2,0.8,1.5c0.8,0.3,2.3,1.3,2.4,0c0.1-1.3,0.5-1.7,0-2.7
		c-0.5-0.9-1.7-2.2-0.9-3c0.8-0.8,0.9-2,1.2-2.7C208.4,260.4,206.6,257.5,205.5,257.5z"/>
	<path class="st0" d="M211.6,266.8c0,0-1.3-2.4-1.6-1.7c-0.4,0.7-0.3,2.5,0,3.2c0.3,0.7-0.8,1.8-0.8,1.8s-1.8-0.5-1,0.7
		c0.8,1.2,1.8,1.6,1.8,1.6h2.3v-1.1c0,0,0.9-0.7,1.3-0.7s0-1.3,0-1.3L211.6,266.8z"/>
	<path class="st0" d="M221.8,264.9c-0.4-0.4-4.6-1.3-4.8-1.2c-0.1,0.1-1.5,1.2,0,2.2c1.5,1.1,3.8,1.5,4.2,1.7
		c0.4,0.3,2.3,2.1,2.9,2.4c0.7,0.3,1.3,0.3,2,0c0.7-0.3,1.6-1.6,0.5-2.4c-1.1-0.8-2.9-2.1-2.9-2.1L221.8,264.9z"/>
	<path class="st0" d="M221,270.3c-0.4-0.2-3.1-2.3-3.5-1.6c-0.4,0.7-1.4,0.2-1.2,1.6c0.1,1.4,0.2,0.2,2.3,1.3
		c2.1,1.1,2.3,2.1,2.3,2.1s0,1.2,1.5,1.1c1.5-0.1,2.3-0.8,1.9-1.3C223.9,272.9,221.7,270.7,221,270.3z"/>
	<path class="st0" d="M234.2,271.6c-0.3-0.3-1.7-2.8-2-1.3c-0.3,1.4-0.5,2.3,0.1,2.9c0.7,0.5,0.8,0.4,0.7,1.6s-0.5,2.1,1.1,1.7
		c1.6-0.4,2.5-1.7,2.5-1.7L234.2,271.6z"/>
	<path class="st0" d="M182.3,241.3c-0.3,0.4,0.1,2,0,3.2c-0.1,1.2-0.7,1.6,1.9,1.6c2.5,0,2.8-0.4,3.3-0.7c0.5-0.3,2,1.5,2.1-0.7
		s-0.4-2.5-0.3-2.9c0.1-0.4,0.3-2.7,0.3-2.7v-2c0,0-0.3-2.1-2-1.7c-1.7,0.4-2.3,1.6-2.5,2c-0.3,0.4-1.7,0.4-1.7,0.4s-1.1-0.7-1.2,0
		c-0.1,0.7,1.2,2,1.2,2s2.8,0.9,2.5,1.5c-0.3,0.5-1.9,0.7-1.9,0.7L182.3,241.3z"/>
	<path class="st0" d="M251.5,265.6c-0.7,0.3-0.4,0.6-1.5,1.4c-1.1,0.8-2.8,0-2.8,0v-2.1c0,0,1.1-1.6,2.1-1.9
		c1.1-0.3,2.1-0.5,2.1-0.5s0.8,0.3,0.8,1.2C252.3,264.7,251.5,265.6,251.5,265.6z"/>
	<path class="st0" d="M254.3,269.9c-0.2,0.7,1.1,2.5,1.1,2.5l1.7-0.7l-0.3-1.3C256.8,270.3,254.7,268.7,254.3,269.9z"/>
	<path class="st0" d="M261.2,264.9c-0.1,0.7-1.7,2.5-2.4,2.1c-0.7-0.4-1.9-1.4-1.7-2.1c0.1-0.7,0.7-2.6,1.7-2.4
		c1.1,0.1,3.2-1.9,4.6-1.2c1.5,0.7,3.7,0.8,4,2.4c0.3,1.6-1.2,5.5-1.3,6.5c-0.1,1-1.6,0.6-1.6,0.6s-2-0.8-1.5-2.4
		c0.5-1.6,0.9-1.7,0.8-2.4C263.7,265.3,261.4,263.6,261.2,264.9z"/>
	<path class="st0" d="M263.1,296.4c0.3,1.3-0.2,2.5-0.8,2.8c-0.5,0.3-1.5,1-1.5,1.5c0,0.6,2.9,1.4,2.9,1.4s2.4-1.4,2.8-1.4
		c0.4,0.1,2.1-0.9,2.1-0.9s-3.2-2-3.2-2.4c0-0.4,0-2.1,0-2.1S262.7,294.5,263.1,296.4z"/>
	<path class="st0" d="M273.4,300.7c-1.1,0.3-3.3,0.6-2.8,1.4c0.5,0.8,0.7,1.5,2,1.7c1.3,0.3,3.7,1.7,3.5,0
		C275.8,302.1,274.7,300.4,273.4,300.7z"/>
	<path class="st0" d="M262.3,304.6c-0.6,0.4-1.1,0.1-1.5,0.9c-0.4,0.8-1.6,1.3-1.6,1.3s-1.1,0.1-1.5,0.4c-0.4,0.3-1.5,0.1-1.5,1.2
		c0,1.1,1.1,2.3,1.5,2.4c0.4,0.1,3.1,0,3.1,0l0.8,0.9l2-1.2c0,0-0.4-0.8,0.4-1.6c0.8-0.8,0.7-2.8,0.7-2.8S263.8,303.7,262.3,304.6z"
		/>
	<path class="st0" d="M18.2,131.7c-0.7,0.5-1.7-0.7-1.7,0.5c0,1.2-0.3,1.6,0.8,1.7c1.1,0.1,0.1,0.9,1.1,0.1c0.9-0.8,0.9-2.4,0.9-2.4
		L18.2,131.7z"/>
	<path class="st0" d="M14,136.5c0,0-1.2-1.7-1.9-1.3c-0.7,0.4-0.1,1.3,0,2.1c0.1,0.8-0.7,2,0.9,1.6C14.7,138.5,14,136.5,14,136.5z"
		/>
	<path class="st0" d="M34.8,216.9c-1.2-0.7-2.8-2-2.8-2l-2.3-2c0,0-2-1.1-2.1,0.3c-0.1,1.3,0,2.7,0,2.7s-1.6-0.8-2.1,0.1
		c-0.5,0.9,0.9,3.8,0.9,3.8s4.4,2.4,4.9,2.8c0.5,0.4,2.7,0,2.7,0s3.1,2.9,6.1,4.4c3.1,1.5,5.4,2.4,5.4,0.8c0-1.6,1.2-1.1-1.5-3.6
		c-2.7-2.5-4.4-2.9-4.8-3.6c-0.4-0.7-2-1.8-2-1.8l-1.7-1.9H34.8z"/>
	<path class="st0" d="M68.8,233.6c-0.3-0.7-3.3-2.3-3.3-2.3s0.3,1.9,0.9,2.9c0.7,1.1,1.9,1.9,2.4,2c0.5,0.1,1.3-1.1,1.3-1.1
		L68.8,233.6z"/>
	<path class="st0" d="M72.3,254.3l-3.7-2.5l-1.5,2.5c0,0-1.6,0.9-2.1,1.5c-0.5,0.5-3.3,1.1-0.1,3.2c3.2,2.1,4.9,2.4,4.6,4.1
		c-0.3,1.7,0.1,4.5,0.7,4.9c0.5,0.4,3.7,1.2,4.2,2.8c0.5,1.6,0.1,1.9,0.8,4.1c0.7,2.3,3.7,3.1,4.8,2.7c1.1-0.4,2.5-5.7,2.5-5.7
		s-1.5-3.5-0.9-4.9c0.5-1.5,1.7-3.2-0.5-4.2c-2.3-1.1-3.7-1.6-4.4-2.4C76,259.5,75.3,254.7,72.3,254.3z"/>
	<path class="st0" d="M104,289.2c-1.9,0.2-3.8,0.8-3.8,1.6c0,0.8,4.8,1.6,4.8,1.6l3.1-1.6C108,290.8,108.5,288.8,104,289.2z"/>
	<path class="st0" d="M97.5,297.7c0,0-1.1-3.1-2.1-2.9c-1.1,0.1-2.3,1.5-1.5,2.9c0.8,1.5-0.3,2.5,1.5,2.4
		C97.1,300,97.5,297.7,97.5,297.7z"/>
	<path class="st0" d="M95.5,303c-1.3,0.4-0.9,2-0.9,2.9c0,0.9-1.1,2.1-1.1,2.1l2.8,1.6c0,0,0.5-0.8,1.1-1.6c0.5-0.8,0-3.2,0-3.2
		S97.1,302.5,95.5,303z"/>
	<path class="st0" d="M104,321.1c-0.4,1.7-2.6-0.9-2.9,0c-0.3,0.9-0.3,0.2-0.3,1.9c0,1.7-0.3,2.8-0.8,3.4c-0.5,0.7-0.9,1.2-0.9,2.1
		c0,0.9,1.2,4.1,2.3,5.4c1.1,1.3,2.5,2.3,2.6,3.6s2.6,2.3,2.6,2.3s2.8,2.9,3.2,3.3c0.4,0.4,0.1,0.7,1.9,0.8c1.7,0.1,3.5-0.4,3.2-2.1
		c-0.3-1.7,0-2.1-1.5-4.8c-1.5-2.7-2.5-4.2-2.7-5.7c-0.1-1.5-0.7-3.3-1.5-4.8c-0.8-1.5-2.2-3.5-2.2-3.5s-0.5-2.6-0.5-3
		C106.5,319.6,104.4,319.7,104,321.1z"/>
	<path class="st0" d="M125.7,351.4c-0.1-0.4-1.6-1.9-1.9,0c-0.3,1.9-1.1,3.2-0.3,4.5c0.8,1.3,2.5,1.1,3.3,2c0.8,0.9,1.2,1.9,2.3,2.3
		c1.1,0.4,3.2,0.4,2.7-0.9c-0.5-1.3-0.1-0.9-1.6-2.3c-1.5-1.3-2.7-2.7-2.7-2.7v-2.9H125.7z"/>
	<path class="st0" d="M137.4,364.7c0,0-1.7,0.8-1.7,2.1c0,1.3,0,3.3,0,3.3s-1.5,2,0,2.3c1.5,0.3,3.7-0.7,3.7-0.7s1.9-0.1,1.9-0.9
		c0-0.8,0-1.1-0.4-2.2C140.5,367.5,137.4,364.7,137.4,364.7z"/>
	<path class="st0" d="M141.3,373.7c-0.2,0.9-0.9,2.7,0,4.2c0.9,1.6,2.9,4,2.9,4s2.8,2.1,3.3,0.5c0.5-1.6,0.9-3.1,0.9-3.1
		s-0.1-1.7-0.9-2.7c-0.8-0.9-0.1-1.5-1.6-2.1C144.4,374,141.6,372.4,141.3,373.7z"/>
	<path class="st0" d="M195.5,445.1c-1.2-0.5-3.8-1.9-3.8-1.9s-2.1,0.8-1.2,1.9c0.9,1.1,1.9,0.5,2.1,1.3c0.3,0.8,0.3,2.1,0.3,2.1
		s3.4,1.6,3.6,0c0.1-1.6,0.1-2.4,0-2.7C196.3,445.7,196.5,445.6,195.5,445.1z"/>
	<path class="st0" d="M275.7,481c0,0,1.2-1.7,0-1.7c-1.2,0-2.1,0.9-2.1,0.9s-0.9,1.8,0.3,1.7C275,481.6,275.7,481,275.7,481z"/>
	<path class="st0" d="M279.7,483c0,0-1.5,0.1-1.7,0.9c-0.3,0.8,0.4,0.9,0,1.5c-0.4,0.5,1.7,0.1,1.7-0.3S279.7,483,279.7,483z"/>
	<path class="st0" d="M288.6,478.2c-0.4,0.5-0.5-0.9-1.2,0c-0.7,0.9-0.7,2.9-0.9,3.6c-0.3,0.7-1.2-0.1-1.9,1.2
		c-0.7,1.3-2.3,3.1,0,3.2c2.3,0.1,3.8-1.5,4.6-0.5c0.8,0.9,0.5,2.3,2.3,1.7c1.7-0.5,2-1.2,3.6-1.2c1.6,0,2.3-0.5,2.5,0.4
		c0.3,0.9,1.2,0.4,1.9,2c0.7,1.6,2.7,2,4.1,2.4c1.5,0.4,2.7,0.7,3.1,1.5c0.4,0.8,0.4,1.3,0.7,2.3c0.3,0.9,2.4,1.1,1.7,1.7
		c-0.7,0.7-2.5,1.7-2.7,3.3c-0.1,1.6,1.6,2.8,3.5,3.2c1.9,0.4,18,4.1,19.6,4.5c1.6,0.4,4.1,0.5,4.1,0.5s1.5,0.7,2,1.2
		c0.5,0.5,2,0.5,4.5,1.5c2.5,0.9,3.1,0.9,3.8,1.9c0.8,0.9,1.2,1.1,4.2,1.3c3.1,0.3,7,1.3,7,1.3s1.3,0.8,3.3,1.1c2,0.3,4.8,1.6,5.6,0
		c0.8-1.6,1.9-3.2,2.5-2.8c0.7,0.4,0.4,1.7,1.7,1.1c1.3-0.7,1.9-2.1,1.9-2.1s1.6,0.5,1.9,1.2c0.3,0.7,2.1-0.9,2.5-0.8
		c0.4,0.1,0.3,1.2,1.1,1.7c0.8,0.5,3.2,0.5,4.1,0.3c0.9-0.3-0.1-1.3,2.5-1.5c2.7-0.1,5.8,0.9,6.1,1.3c0.3,0.4-1.3-0.3,2.5,0.4
		c3.8,0.7,5.8,2,5.8,2l5.7,1c0,0,7.8,1.5,10.2,3.1c2.4,1.6,8,3.3,11.9,5.2c4,1.9,10.6,2.8,11.4,2.9c0.8,0.1,1.6,2.3,2.8,2
		c1.2-0.3,0.8-1.6,1.6-1.6s0.7,0.1,3.3,0.8c2.7,0.7,4.8,0.2,5.2,0.8c0.4,0.6,3.3,1.2,3.3,1.2h3.1c0,0-1.5-3.5,2.3-2.4
		c3.7,1.1,6,1.3,6.6,1.9c0.7,0.5,4.8,0.4,5.2,0.5c0.4,0.1,0.5-0.5,1.5,0.7c0.9,1.2,3.2,1.6,3.2,1.6l2.8,0.7h1.3c0,0,0.9-0.4,2.1,0
		c1.2,0.4,2.5,0,2.5,0s0.8-1.7,2.9-1.1c2.1,0.7,3.1,1.2,3.5,0.3c0.4-0.9,0.4-3.3,1.5-3.3c1.1,0,3.7,0.3,5,0.7
		c1.3,0.4,3.8,1.7,3.8,2.1c0,0.4,2.8,2.3,2.8,2.3s4.1,0.4,5.3,0.9c1.2,0.5,1.2,0.3,2.5,0.9c1.3,0.7-0.4,0.1,1.9,1.2
		c2.3,1.1,3.8,1.1,5.7,1.1c1.9,0,2.8,0,2.8,0s1.2-0.3,1.7,0c0.5,0.3,4.4-1.5,4.1,0c-0.3,1.5,1.5,2.5,2.3,2.9c0.8,0.4,1.5-0.4,1.9,0
		c0.4,0.4,1.3,1.5,2.1,1.5c0.8,0,2.4-1.6,0.7-2.7c-1.7-1.1-6.9-3.6-6.8-5c0.1-1.5,0.8-3.3,0.9-3.8c0.1-0.5-0.5-2.4,0.4-2.8
		c0.9-0.4,1.9-1.5,1.9-1.5s0.7-0.4,0.7-2c0-1.6-0.4-1.9-0.4-3.3c0-1.5,0-3.6,0-3.6s2-1.3,0.3-2.5c-1.7-1.2-4.2-2.5-5.6-3.1
		c-1.3-0.5-3.1-1.6-3.8-1.6c-0.8,0-2.1-0.5-2.1-0.5s-0.9-0.7-2.9,0.4c-2,1.1-1.3,1.7-4.8,1.2c-3.5-0.5-4.8-1.5-5.7-1.1
		c-0.9,0.4-0.7,0-3.3,0.8c-2.7,0.8-2.7,1.5-4.5,0.8c-1.9-0.7-2.7-1.7-3.8-1.7c-1.2,0-2.7-1.6-3.1-1.4c-0.4,0.3-3.2-1.6-3.2-1.6
		s-2.5-1.6-1.5-3.5c1.1-1.9-0.7-2.8,2.1-3.1c2.8-0.3,3.2-1.6,5-1.3c1.9,0.3,0.9-0.8,4.5,0.7c3.6,1.5,5.2,1.2,5.7,0.8
		c0.5-0.4,3.6-2.8,3.6-2.8s3.7,0.1,4.2-0.7c0.5-0.8,2.5-1.7,2.5-1.7s5.4-1.9,5.7-2.3c0.3-0.4,3.5-1.6,1.7-2.9
		c-1.7-1.3-2.9-3.6-5.7-2.8s-4.5,1.5-6.9,1.7c-2.4,0.3-10.2-0.9-10.2-0.9h-6.6c0,0-4.9-0.1-5.3-0.1s0.8,1.3-1.5,1.6
		c-2.3,0.3-4.8-1.2-4.8-1.2s-2-1.5-3.7-1.2c-1.7,0.3-6.2-0.3-6.2-0.3l-4.2-0.7c0,0-2.4-0.9-2.4-1.3s0.5-0.8,0.5-0.8l-1.7-2.8
		c0,0-7.3,0.3-8.2,0c-0.9-0.3-2-3.5-4.5-1.9c-2.5,1.6-4.2,2-5.3,1.6c-1.1-0.4-2.1-1.5-3.6-1.5c-1.5,0-3.1,0.3-3.1-1.2
		c0-1.5,2.9-5.6-1.3-5.6c-4.2,0-7.4-2-9.6,0.5c-2.1,2.5-2.3,3.6-2.3,4.6c0,1.1-1.5,3.3-1.5,3.3s-2.9,1.2-3.2,2.3
		c-0.3,1.1,0.1,2.1-2.9,2.4c-3.1,0.3-10.4,0.7-13.4,0.8c-3.1,0.1-8.4-2.8-8.4-2.8s-2.4,1.7-6,1.5c-3.6-0.3-10.2-1.7-10.2-1.7
		s-7.2-1.5-7.6-1.7c-0.4-0.3-2.7-3-2.7-3l-3.2-4.9l-2.7-1.9l-5.6-3.1c0,0-3.5-0.4-4.4-1.1c-0.9-0.7-5.6-2.8-5.6-2.8l-5.3,0.3
		l-4.4-2.4c0,0,0.5-2.1-3.5-2.7c-4-0.5-5.3-1.6-9.4-0.7c-4.1,0.9-4.5,1.5-8.9,1.5c-4.4,0-5.4-1.2-7.7-0.9c-2.3,0.3-2.1,0.7-3.2,0.4
		c-1.1-0.3-3.1-2.3-4.9-2.3c-1.9,0-3.7,1.3-3.8,2.3c-0.1,0.9-1.1,2.1-2.9,2.8c-1.9,0.7-2.3,2.4-2.3,2.4s0.1,3.6,0,4.4
		c-0.1,0.8-1.6,2.1-1.6,2.1s0.8,2.5,0,2.8C288.6,478.2,288.6,478.2,288.6,478.2z"/>
	<path class="st0" d="M481.6,458.5c0,0-5.6,1.3-4,2.7c1.6,1.3,4,1.9,4,1.9l2.1-1.9C483.8,461.2,483.3,458.1,481.6,458.5z"/>
	<path class="st0" d="M548.7,544.5c-0.1,1.3-1.5,2.1-1.6,2.9c-0.1,0.8,1.6,1.1,1.6,1.1l1.7-1.1v-1.7L548.7,544.5z"/>
	<path class="st0" d="M557.7,543.5c-0.2,0.4-0.8,2-0.8,2l2.7,1.9c0,0,1.7-0.1,1.9-0.8c0.1-0.7,0.3-1.5,0.1-2
		C561.4,544,558.3,542.4,557.7,543.5z"/>
	<path class="st0" d="M555.8,490.5c-1.3,0.3-2,2-2,2s1.2,0.7,2.7,0.4c1.5-0.3,1.9-0.4,2.9,0.1c1.1,0.5,1.1,0.5,1.1,0.5
		s0.1-2.1-1.1-2.4C558.2,490.8,555.8,490.5,555.8,490.5z"/>
	<path class="st0" d="M526.5,497.4c0.6,1,1.9,1.7,1.9,1.7s1.2,0,0.9-1.1c-0.3-1.1-1.4-2.5-1.4-2.5S524.8,494.6,526.5,497.4z"/>
	<path class="st0" d="M574.3,535.9c-0.4,1.3,0.9,6.5,0.9,6.5s0.2,1.1-1,1.6c-1.3,0.5-2.2,0.7-3.8,0.5c-1.6-0.1-2.8,0-2.8,0
		s2.1,3.5,5.2,3.9c3,0.4,1.7-0.1,4.9,0c3.2,0.1,5.6,0.7,6.1,0.7c0.5,0,1.9-0.7,1.9-0.7s-0.5-1.5,0.8-4c1.3-2.5,1.5-3.8,2.5-4.8
		c1.1-0.9,6.4-3.6,4-5.8c-2.4-2.3-7.2-4-8.1-3.6c-0.9,0.4-0.8-1.3-3.1-0.1c-2.3,1.3-4.1,3.9-4.1,3.9L574.3,535.9z"/>
	<path class="st0" d="M597.5,538.2c-1.6,0.7-2.3,0.8-2.1,2.1c0.1,1.3,1.6,3.7,1.6,4.2s-1.1,2-1.1,2s0,1.7-0.5,2.7
		c-0.5,0.9,0.7,2.9,1.1,3.2c0.4,0.3,2-0.1,4.1,1.2c2.1,1.3,5,0.7,5,0.7s-0.3-0.1,0.8-0.7c1.1-0.5,1.6,0.7,3.6-0.1
		c2-0.8,2.1-1.1,4.1-1.5c2-0.4,2.9-0.7,3.6-1.2c0.7-0.5,2.3-1.7,2.7-1.6c0.4,0.1,2.8,1.7,4,1.1c1.2-0.7,3.3-1.5,3.7-1.7
		c0.4-0.3,3.2,0,3.2,0l2-1.2l5.7-4.2c0,0,1.7-2.5,1.6,0c-0.1,2.5-0.3,2.2-0.4,3.4c-0.1,1.2,5.3,1.7,6.2,0.8c0.9-0.9,1.7-3.3,1.7-3.3
		l3.7-0.9c0,0,1.2,2.5,2.7,2.1c1.5-0.4,3.7-1.2,3.7-1.2s2.8-0.9,1.3-1.6c-1.5-0.7-1.9,0-2.8-1.2c-0.9-1.2-1.6-3.1-1.6-3.1
		s1.2-1.3,0.9-2.7c-0.3-1.3-1.9-5.8-4.1-4c-2.3,1.9-4.4,5.3-4.4,5.3s-1.2,0.1-1.2-1.1c0-1.2,0.3-2.9-0.8-3.8
		c-1.1-0.9-1.9-3.8-3.5-2.1c-1.6,1.7-1.3,2.2-3.2,3.3c-1.9,1.1-1.5,2.7-3.1,0.9c-1.6-1.7-1.9-1.6-2.1-3.2c-0.3-1.6-0.8-5.4-3.2-5.3
		c-2.4,0.1-4.9,0.1-6.8,1.1c-1.9,0.9-3.7,1.9-3.7,1.9s-3.1-1.5-4.4-0.5c-1.3,0.9-2.5,4.1-2.5,4.1s0.5,2.5-0.9,3.3
		c-1.5,0.8-4.9,1.5-4.9,1.5l-3.2-1.1c0,0-2.3-0.8-2.9,0.3C600.6,537.1,597.5,538.2,597.5,538.2z"/>
	<path class="st0" d="M657.3,527.8c0,0-2.3,0-1.7,1.2s1.7,2,1.7,2s3.1,0.7,2.5-0.7C659.3,529,658.2,527.7,657.3,527.8z"/>
	<path class="st0" d="M669,538.4c-0.9,0.4-1.7,0.6-1.9,1.5c-0.1,1-1.3,1.8,0.4,1.9c1.7,0.1,2.7-0.7,2.7-0.7l1.7-1.1
		C671.9,540.2,669.9,538.1,669,538.4z"/>
	<path class="st0" d="M680.3,539.5c-1.9,2.1-1.9,2.1-1.9,3c0,0.9-0.8,1.1-0.7,2c0.1,0.9,4.1,3.2,4.1,3.2s3.7-1.6,4.8-1.2
		c1.1,0.4,5.8,1.7,5.8,1.7h2.9l3.5-1.7c0,0,1.3,2.3,3.2,2.7c1.9,0.4,3.7-0.7,4.2-0.7c0.5,0,1.1-0.9,2.7,0.8c1.6,1.6,3.1,1.9,3.1,1.9
		l2.4-0.9c0,0,3.3-0.4,4.2-0.3c0.9,0.1,3.6,1.3,3.6,0.3c0-1.1-3.1-2.8,0.5-2.8c3.6,0,6.1,0.3,6.6,0.9c0.5,0.7,3.3,1.6,4,1.3
		c0.7-0.3,4.6-0.8,6.4-1.9c1.7-1.1,3.5-3.2,5.2-2.5c1.7,0.7,3.1,1.3,4.9,0.9c1.9-0.4,3.8-0.9,3.8-0.9s1.7-1.7,2.7-1.9
		c0.9-0.1,3.3-0.7,3.3-0.7l3.6-0.9l1.3-0.9c0,0,3.8-2.2,4.2-2.6c0.4-0.4,1.1-1.9,1.1-1.9s-0.8-0.4-1.9,0c-1.1,0.4-1.2,1.9-2.9,1.9
		c-1.7,0-3.1,0-3.1,0s-1.2-0.9-0.1-1.3c1.1-0.4,1.6-0.5,2-0.8c0.4-0.4,0.3-0.8,1.3-1.3c1.1-0.5,1.7-2.3,1.7-2.3s-0.1-1.6-1.7-0.7
		c-1.6,0.9-3.3,2-3.3,2l-3.6,1.1c0,0-1.7-0.3-2.4,0.3c-0.7,0.5-1.6,3-1.6,3l-0.1,2.3l-4.8,1.2l-3.6-0.4l-3.7-3.1l-3.3-0.6
		c0,0-3.8-0.9-4.4-0.7c-0.5,0.3-5,1.3-5.8,1.9c-0.8,0.5-2.9,2.5-2.9,2.5s-6-2.5-6.4-3.1s-3.8-1.8-5-2.1c-1.2-0.3-4-2-4-2
		s-3.2-1.9-4-1.9c-0.8,0-3.8,0.1-3.8,0.1s-3.6-1.9-4.9-1.4c-1.3,0.5-4.4,1.8-4.4,1.8s-3.8,0.4-4.5,0.5c-0.7,0.1-2.1,0.4-3.3,1.1
		c-1.2,0.7-2.8,1.6-3.2,2C681.8,537,680.3,539.5,680.3,539.5z"/>
	<path class="st0" d="M762.1,531.1c1.3-1.3,2.1-1.6,2.1-1.6s3.7,1.5,3.6,0s-1.6-2.7-1.6-2.7s-3.6-2.5-4.1-1.2
		c-0.5,1.3-0.5,2.4-0.9,2.8c-0.4,0.4-1.6,1.7-1.6,2.1S762.1,531.1,762.1,531.1z"/>
	<path class="st0" d="M750,537.8c0,0-0.8-0.4-0.8,0.6c0,1,2,0.6,2,0.6l0.5-1.3l-1.3-0.7L750,537.8z"/>
	<path class="st0" d="M774.8,531.7c0,0-2.7-0.8-3.1,0s-1.3,1.5-1.9,1.9c-0.5,0.4,0,1.2,0,1.2h2.3c0,0,1.4,1.6,2.6,0.9
		c1.2-0.7,2.1-2.1,2.1-2.1L774.8,531.7z"/>
	<path class="st0" d="M779.3,535.8c0,0-1.5,0-2.4,1.2s-0.5-0.1-0.9,1.2c-0.4,1.3,0.9,1.6,0.9,1.6s0.2,1.4,0.7,1.4s1.7,0.8,2.2,0
		c0.5-0.8,0-2.5,1.2-2.1c1.2,0.5,2,0,2,0l0.8-1c0,0,1.5-2.2,1.9-2.2c0.4,0,0.4-1.2,1.2-1.4c0.8-0.1,2.4-1.3,2.9-2.1
		c0.5-0.8,0.9-2,0.5-2c-0.4,0-0.9-0.1-2,0.7c-1.1,0.8-1.7,1.7-2.9,2.5c-1.2,0.8-2,1.3-2.2,1.7c-0.2,0.4-0.8,0.4-1.2,0.7
		C781.6,536.2,779.3,535.8,779.3,535.8z"/>
	<path class="st0" d="M802.8,531.1c-0.8-0.2-1.6,0.6-2,1.6c-0.4,1.1-1.2,1.9-1.6,2c-0.4,0.1-1.2-1.2-1.2-1.2s-1.6-2.1-2.4,0
		c-0.8,2.1-1.9,2.2,0,3.4c1.9,1.2,3.1,2.1,3.1,2.1l3-1c0,0-0.5-1.2,0.5-2.2c1.1-1,2.5-3.7,2.5-3.7L802.8,531.1z"/>
	<path class="st0" d="M810.6,530.3c-1.1-0.3-3.1,0.3-3.5,1.9c-0.4,1.6,0.1,2-0.4,2.9c-0.5,0.9-1.1,1.9-1.1,1.9s3.3,0.7,3.6,0
		c0.3-0.7,2,0,2,0s2.9,0.5,3.2,0c0.3-0.5,0.1-2.4,0.9-1.9c0.8,0.5,2.4,0.8,2.4,0.8l2.3-1.5l2.5,0.7l3.3-0.7c0,0,2.1-3.1,2-3
		c-0.1,0.1-3.3-1.9-3.3-1.9l-4.8,0.1c0,0,0.4-2.4-2.1-1.4c-2.5,1-3.1,1.8-3.6,2.2c-0.5,0.4-1.2,0.7-1.2,0.7L810.6,530.3z"/>
	<path class="st0" d="M839.6,530.3c-1.3,0.5-2.1,2.2-2.1,2.2h2.8L839.6,530.3z"/>
	<path class="st0" d="M850.4,515.6c-0.9,0.9-2.1,2-3.1,4.1c-0.9,2.1-1.6,2.4-1.2,3.1c0.4,0.7,2,2.4,4.2,0.4c2.3-2,3.7-3.5,4.2-2.9
		c0.5,0.5,1.5,1.2,2.7,1.3c1.2,0.1,2.1-1.1,3.2-0.1c1.1,0.9,2.8,1.6,2.8,1.6l1.9-0.4l1.9-2.8c0,0,1.5-2.5,3.8-2.5s3.2-2.4,2.1-2.4
		c-1.1,0-0.9-0.3-2.7-0.9c-1.7-0.7-2.8-1.5-3.5-1.6c-0.7-0.1-2.8-0.3-4,0.9c-1.2,1.2-4,2.4-4,2.4s-0.8-1.5-1.7-0.8
		c-0.9,0.7-1.6,1.3-1.6,1.3s-0.9-0.7-1.3-0.5C853.9,515.9,852.2,513.9,850.4,515.6z"/>
	<path class="st0" d="M889.6,510.7c-1,0.9-1.7,1-1.1,1.6c0.7,0.6,2.1,0.9,2.3,1.4c0.1,0.5,2.8-0.8,2.8-0.8S890.4,509.9,889.6,510.7z
		"/>
	<path class="st0" d="M905.9,528.9c-0.9-0.1-2.3-0.8-3.8-1c-1.6-0.2-1.6,0.5-1.6,0.5s1.3,1.8,2.9,2c1.6,0.1,2,1.1,2,1.1
		s2.7,1.2,3.7,1.1c1.1-0.1,2.5-0.5,2.1-1.1c-0.4-0.6-2.5-2.6-2.5-2.6H905.9z"/>
	<path class="st0" d="M897.7,530.3c-0.4-0.1-1.6-0.6-1.7-0.1c-0.1,0.5-1.1,0.6,0,0.9c1.1,0.3,3.2,0.2,3.2,0.2L897.7,530.3z"/>
	<path class="st0" d="M884.3,525.2l-1.6,1.2c0,0,1.6,1.6,1.6,1.5c0-0.2,2.3-0.7,2.3-0.7S885.1,524.5,884.3,525.2z"/>
	<path class="st0" d="M923.8,498.2c-0.7,0.3-1.7,1.7-1.2,2c0.5,0.3,1.2,1.1,2,0.8c0.8-0.3,2.3,0,2.1-0.9
		C926.6,499.1,926.1,497.2,923.8,498.2z"/>
	<path class="st0" d="M956.7,520.5c-0.4,0-1.7-1.2-1.7-1.2s-2.4-0.4-2.8,0.5c-0.4,0.9-1.7,1.3,0,3.3c1.7,2,0.8,1.5,1.7,2
		c0.9,0.5,3.1,1.7,3.7-0.1C958.3,523.3,956.7,520.5,956.7,520.5z"/>
	<path class="st0" d="M959.1,526.5c-1.5,1.1-2.3,1.5-2.7,2.2c-0.4,0.7-1.9,2.6,0.5,1.4C959.4,528.7,959.1,526.5,959.1,526.5z"/>
	<path class="st0" d="M999.1,509.2c-0.7,1.1-2.3,2.6-2.4,4.6c-0.1,2,0.1,2.3,0.1,3.2c0,0.9-0.4,0-1.2,1.2c-0.8,1.1-0.5,2-0.9,3
		c-0.4,0.9-0.9,0.5-1.2,1.4c-0.3,0.9-3.8,1.7,0.4,1.5c4.2-0.3,6.9-3.2,6.9-3.2s-0.3-3.4,1.2-4.2c1.5-0.8,2.8-2,2.8-2
		s2.1-3.3,2.1-4.1c0-0.8,0-2.3,0-2.3s0.5-2.4,0.7-2.8s1.2-1.2,1.2-1.2v-2.3c0,0-2.3-0.8-2.7,0.1c-0.4,0.9-1.9,2.8-1.9,2.8
		s-2.8,2.1-3.1,2.5C1000.9,507.9,999.1,509.2,999.1,509.2z"/>
	<path class="st0" d="M992.8,509.4c0,0-1.7,0.3-1.7,0.7c0,0.4,1.7,0.5,1.7,0.5h0.5L992.8,509.4z"/>
	<path class="st0" d="M987.4,511.2c0,0-1.1,0.9-1.1,1c0,0.1,0.4,1,1.1,0.7c0.7-0.3,1.1-0.8,1.1-0.8L987.4,511.2z"/>
	<path class="st0" d="M990.6,528.4c-0.4,0.5-1.7,1.2-2.1,1.6c-0.4,0.4-2.5,1-1.1,1.3c1.5,0.3,3.2,0,3.2,0l1.7-1.4v-1.4H990.6z"/>
	<path class="st0" d="M985.3,532.6c-1.5,1.3-2,2.4-2,2.4s1.6,0.8,2,0.4c0.4-0.4,1.1-1.3,1.1-1.3L985.3,532.6z"/>
	<path class="st0" d="M1014.2,499.5c-0.4,0.3-1.2-0.2-1.2,0.6c0,0.8,1.7-0.3,2.4,1c0.7,1.3,0.9,1.9,0.9,1.9s3.1-0.9,2.5-1.2
		c-0.5-0.3-1.6-1.5-2-1.5C1016.4,500.3,1014.2,499.5,1014.2,499.5z"/>
	<path class="st0" d="M677.8,564.3c-0.9,0.4-3,0-3,0s0.3-1.5-1.1-0.9c-1.3,0.5-2.4,0.9-2.4,0.9s-1.1-0.7-2.5-0.4
		c-1.5,0.3-2.4-0.2-4.1,0c-1.7,0.2-2.4,0.3-2.8,0.6c-0.4,0.4-3.6-1.2-4.1,0c-0.5,1.2-0.3,0.2-2.2,1.8c-1.9,1.6-4.3,2.3-3.1,4
		c1.2,1.7,3.3,3.2,4.5,4.2c1.2,1.1,5.6,2.1,5.6,2.1s5.2-1.3,6.8-0.9c1.6,0.4,4.9,1.3,5.2,2c0.3,0.7,2,2.4,2,2.4s3.3,0.8,3.6,1.5
		c0.3,0.7,2.1,2,2.1,2.8s0.8,0.5,1.3,1.9c0.5,1.3,4.9,2.7,4.9,2.7l1.5,1.1h3.2c0,0-0.4,1.7,1.3,1.9c1.7,0.1,1.3-1.6,3.1-1.3
		c1.7,0.3,2.8-0.1,4.2-0.9c1.5-0.8,1.6-1.9,3.3-2.5c1.7-0.7,4-2.3,2.1-4c-1.9-1.7-5.8-1.2-5.8-3.5c0-2.3,2.3-3.2-0.5-4.5
		c-2.8-1.3-4.9-2.3-5-2.8c-0.1-0.5,1.2-2.3-1.7-2.1c-2.9,0.1-4.1-0.3-4.1-0.3s0.5-3.6-0.4-3.6c-0.9,0-3.6-0.3-3.6-0.3l-1.9-2.8
		c0,0-0.9-2.4-2.3-1.6c-1.3,0.8-1.8,2.5-1.8,2.5L677.8,564.3z"/>
	<path class="st0" d="M734.3,597.2c-0.8,0.8-2.4,1.9-2.9,1.9c-0.5,0-4.8,0.4-1.3,2.4c3.5,2,5,0.8,7-1.2c2-2,2.5-2.1,2.4-3.1
		c-0.1-0.9-0.9-2.9-1.9-2.8C736.7,594.6,734.3,597.2,734.3,597.2z"/>
	<path class="st0" d="M727.2,600.8c-0.8,0.2-2,0.5-2,1.1s0.5,1.3,1.3,1.3s1.5-0.7,1.5-0.7S728.5,600.4,727.2,600.8z"/>
	<path class="st0" d="M769.9,603.2c-0.9,0.8-2.5,2.4-2.5,2.4l-1.9,0.7h-2.8c0,0-0.5,1.3-0.5,2.5c0,1.2,2.8,2.3,2.8,2.3
		s2-3.2,3.3-3.3c1.3-0.1,2.1-0.6,2.1-0.6l1.6,0.6l1.1-2.8l2.1-1.7c0,0-1.1-1.1,1.1-1.2c2.1-0.1,3.7-0.1,2.7-1.2
		c-1.1-1.1-2.1-2.9-3.8-2.3c-1.7,0.6-1.9,0.2-2.3,1.2c-0.4,0.9-2.1,2.4-2.1,2.4L769.9,603.2z"/>
	<path class="st0" d="M782.4,587.1c-0.5,1.3-2.2,1.6-3.1,1.6c-0.9,0-1.7-1.3-2.3-0.7c-0.7,0.7-1.6,1.3-1.7,2.8
		c-0.1,1.5,2.1,2.5,4.1,2.4c1.9-0.1,1.3,1.9,4,1.7c2.6-0.1,2.5-1.3,5.7-1.3c3.2,0,2.8,0.4,4.1-0.1c1.3-0.5,3.2-2,4.2-3.3
		c1.1-1.3,1.8-3.5,2.5-3.1c0.7,0.4-0.1,1.7,2.7,0.8c2.8-0.9,5-3.5,6.5-4.2c1.5-0.8,5-3.8,6-4.8c0.9-0.9,3.5-3.6,3.5-3.6
		s1.5-2.1,2.1-3.1c0.7-0.9,1.7-1.9,2.4-2.8c0.7-0.9,7.3-5.4,7.7-5.6c0.4-0.1,1.3-0.5,3.2-1.6c1.9-1.1,5.1-2.1,5.1-2.1
		s3.5-0.9,5.5-1.1c2-0.1,5.4-0.9,5.4-0.9s2.3-0.8,3.1-1.7c0.8-0.9,1.7-2.9,2.5-3.3c0.8-0.4,1.5,0.3,5.4,0c4-0.3,5.2-1.3,5.2-1.3
		s1.5-2.8,2.8-3.1c1.3-0.3,3.6-1.7,4.7-1.9c1.1-0.1,1.9-0.1,3.1-1.5c1.2-1.3,3.7-2.8,3.7-2.8l2.4-1.6l3.8-3.1l-0.8-2.1
		c0,0-2.4-1.6-3.1-0.9c-0.7,0.7-3.5,0.9-3.5,0.9s0.8-1.8-1.6-1.1c-2.4,0.8-2.4,1.5-4.2,2.1c-1.8,0.7-2.1-0.7-3.5,0.3
		c-1.5,1-1.3,1.1-2.7,1.8c-1.3,0.7-0.1,1.5-2.3,0c-2.1-1.5-1.7-4.1-4.2-2.1c-2.5,2-2,2.7-5.4,2.9c-3.5,0.3-5-0.8-6.2-0.8
		c-1.2-0.1-1.9,0.8-6,0.8c-4.1,0-6.5-0.3-8.2,0.5c-1.7,0.8-1.7,0.3-3.5,1.1s-3.7,0.5-4.2,1.2c-0.5,0.7-1.1,1.9-1.5,3.5
		c-0.4,1.6-2.9,3.8-2.9,3.8s-4.9,3.3-6,3.7c-1.1,0.4-3.1,0.3-4.1,1.7c-0.9,1.5-3.2,2.3-4.4,2.9c-1.2,0.7-3.1,0.1-4.1,0.8
		c-1.1,0.7-5.2,2.9-5.2,2.9s-0.7,0.5-1.7,2c-1.1,1.5-1.7,0.6-2.8,0.8c-1.1,0.2-2.6-0.5-3.5,1.1c-0.9,1.6-1.7,2.8-3.1,4.2
		c-1.3,1.5-2.4,2-2.7,3.5c-0.3,1.5-0.3,1.8-0.3,3c0,1.2,0.3,2-0.3,2.8c-0.5,0.8-1.9,0.4-1.7,2.5c0.2,2.1,2.1,0.3,3.3,2.4
		s0.1,3.6-0.4,4C785.5,588.7,782.4,587.1,782.4,587.1z"/>
	<path class="st0" d="M1049.5,446.7c-1.1,0.9-2.1,3.8-2.1,3.8s-0.1,1.9-0.4,2.5c-0.3,0.7-0.5,1.9-0.7,2.3c-0.1,0.4-1.5,1.7-1.5,1.7
		l-1.1,2.1c0,0,2.5-0.3,2.9-1.3c0.3-1.1-0.6-0.4,0.7-1.6c1.3-1.2,1.6-2.7,2.1-3.8c0.5-1.2,0.8-2.9,0.8-2.9L1049.5,446.7z"/>
	<path class="st0" d="M1042.6,462.9c-0.7,1.7-0.9,2.7-0.9,2.7s1.5,1.2,2.1-0.3c0.7-1.5,0.7,0.3,0.7-1.5S1042.6,462.9,1042.6,462.9z"
		/>
	<path class="st0" d="M1037.7,458.1c0,0-1.5-3.3-1.7-2c-0.3,1.3,2,3.6,1.7,4.1c-0.3,0.5,0,2.5,0,2.5s-0.1,1.4,0,1.6
		c0.1,0.3,1.4,2,1.8,0c0.4-2,0-3.8,0-3.8L1037.7,458.1z"/>
	<path class="st0" d="M1080.8,458.5l-1.6,2l-0.3,1.4c0,0,1.5,0.3,1.9-0.4c0.4-0.7,0.7-1.3,0.7-1.3l1.6-1.1L1080.8,458.5z"/>
	<path class="st0" d="M1087.2,455.8c-0.6,0.2-0.9,0.3-1.1,1.1c-0.1,0.8-0.8,1.6-0.8,1.6s-0.7-0.1-0.5,0.7c0.1,0.8,0.5,0.2,1.2,1.1
		c0.7,0.9,0.1,1.7,0,1.8c-0.1,0.1-1.1-0.4-1.8,0.7c-0.8,1.1-1.5,2.5-1.1,2.6c0.4,0.1,1.6,1.2,3.1,0c1.5-1.2,2.4-1.6,2.4-1.6
		s0.5,0.7,1.3,0.7c0.8,0,2.4,0.8,2.8,0c0.4-0.8,0.1-1.6,0.1-1.6s-1.6,0.2-0.7-0.7c0.9-0.8,1.2-1.5,0.8-1.8c-0.5-0.3-1.4-0.8-1-1.1
		c0.4-0.3,0.5,0,0.7-0.7c0.1-0.7,1.6-2.1,0.6-2.1c-1,0-1.2-0.3-2,1.2c-0.8,1.5-1.3,1.6-1.3,1.6s-1.6-0.9-1.5-1.9
		C1088.2,456.4,1087.9,455.6,1087.2,455.8z"/>
	<path class="st0" d="M1090.2,453c-0.8,0.1-2.1-0.9-2.1-0.9s0.7-1.3,2.1-0.9c1.3,0.4,1.7,0.9,1.7,0.9s0.4,1.9,0,1.9
		C1091.6,453.9,1090.2,453,1090.2,453z"/>
	<path class="st0" d="M1078,468c-0.4,0.7-0.8,1.9-0.7,2.3c0.1,0.4,1.6,0,1.6,0l0.9-1.1L1078,468z"/>
	<path class="st0" d="M1085.9,468.5c-0.5,0.4-2.3-0.4-2.8,0.7c-0.5,1-0.4,2.2-0.1,2.5c0.3,0.3,2,0.1,2.9,0.4
		c0.9,0.3,2.1,0.4,2.3,1.6c0.2,1.2,3.9,6,0,3.7c-3.9-2.3-5-3.3-5.5-3.6c-0.4-0.3-1.7-2.1-1.7-2.1s-1.5,0-1.1,0.7
		c0.4,0.7,4.4,5.7,5,6.2c0.6,0.5,3.3,2.3,3.3,2.3s1.9-0.5,1.8-1.1c-0.1-0.5,0.9-1.3,0.9-1.3l1.2-1.7c0,0,0.2-2.2,0.6-2.1
		s-0.4-0.7-0.6-1c-0.2-0.3,1.8-3.1,1.8-3.3c0-0.2-0.5-2-0.5-2s-1.5,0.3-2.4-0.5c-0.9-0.8-1.3-2.5-2.9-1.9
		C1086.6,466.6,1088,467,1085.9,468.5z"/>
	<path class="st0" d="M1083.1,480.8c0.4-0.5,0-2.7-1.3-3.2c-1.3-0.5-1.6-0.4-1.9-1.1c-0.3-0.7-0.8-1.1-0.9-1.5
		c-0.1-0.4-0.5-3.5-0.9-1.8c-0.4,1.8,1.2,2.5,0.6,3.5c-0.6,0.9-2.4,2.1-1.3,2.8c1.1,0.7,2.8-0.4,2.8-0.4s0.6,3.2,0.9,3.8
		c0.3,0.7,3.1,2.3,1.9,3.2c-1.2,0.9-2.7-1.3-2.8-2c-0.1-0.7-3.2-3.7-2.8-1.7c0.4,2,2.4,3.1,1.3,3.9c-1.1,0.8-2.7,1.6-2.6,3
		s2.4,1.2,2.6,1.6c0.2,0.4-1.5,2.4,0.3,2.4c1.9,0,2.4-0.5,3.2-1.5s1.6-1.3,2.3-2.1c0.7-0.8,0.9-3.5,0.9-3.5l1.6-1.6
		c0,0,0.4-0.7-0.8-1.7c-1.2-1-3.1-1-3.1-1.6C1083.1,480.8,1083.1,480.8,1083.1,480.8z"/>
	<path class="st0" d="M1093.4,485.5c0,0-0.6,0.8-1.3,1.7c-0.7,0.9,0,1.1,0,1.1l1.8-1.1v-1.1L1093.4,485.5z"/>
	<path class="st0" d="M1091.8,481.8c0,0,0.8,0.5,1.1,0.5c0.3,0,0.3,0,0.3,0v-1.5L1091.8,481.8z"/>
	<path class="st0" d="M1096.3,478.3v1.3c0,0,0.3,1.2,0.8,0.3c0.5-0.9,0.7-1.6,0.7-1.6l0.5-1.1l-1-0.9
		C1097.3,476.3,1095.5,476.7,1096.3,478.3z"/>
	<path class="st0" d="M866.4,383.8c0,0-2.7-0.5-3.1,0c-0.4,0.5-2,0.9-2.4,1.5c-0.4,0.5-1.2,0.4-1.5,0.9c-0.3,0.5-2.7,0-2.7,0V385
		c0,0-2.1,1.3-2.5,2.7c-0.4,1.3,0.4,1.1,0,3.1c-0.4,2-0.1,4-0.1,4s3.7,1.9,4.6,2.8c0.9,0.9,1.1,1.5,3.3,2.5c2.3,1.1,2,0.4,3.5,1.5
		c1.5,1.1,4,1.7,4.9,2.3c0.9,0.5,2.9,2,4.8,0.9c1.9-1.1,4.2-2.1,4.2-2.1l3.8-0.9c0,0,1.5-1.2,2.7-1.5c1.2-0.3,1.6-1.7,1.2-2.7
		c-0.4-0.9-2.5-3.2-2.5-3.2s2.4-2,1.1-2.8c-1.3-0.8-2.9-1.6-2.9-1.6l-0.3-0.9l-2.8-2.1l-2-0.9c0,0-3.2-3-3.8-2.4
		c-0.7,0.6-1.5,0.1-3.2-0.1c-1.7-0.2-3.6,0-3.6,0L866.4,383.8z"/>
	<path class="st0" d="M822.7,350l-4.2-1.2c0,0-1.2,0.5-1.9,1.2c-0.7,0.7-2.9,1.2-2.9,1.2l-4-1.2c0,0-3.2-1.1-2.5-2.7
		c0.7-1.6,1.6-3.7,3.5-4.5c1.9-0.8,6-2.8,7.2-1.5c1.2,1.3,1.1,2.9,4.9,2.8c3.8-0.1,6.5-0.1,6.9,0c0.4,0.1,1.6,1.1,2,1.3
		c0.4,0.3,2.9-0.4,2.9,0.6c0,1-0.7,2.2-0.7,2.2s-1.5,0.7-2.4,0.7c-0.9,0-2-0.3-2.7-0.3c-0.7,0-2.8,0.8-2.8,0.8s-0.8,0.3-1.2,0.4
		C824.4,350,822.7,350,822.7,350z"/>
	<path class="st0" d="M839.4,347.1c-1.1,0-2.7,0-2.7,0s-0.1,1.1,1.3,1.7c1.5,0.7,3.5,1.2,3.5,1.2s0.9,0,2.9,0c2,0,5.3,0,5.3,0h2.9
		c0,0,1.7,0.7,2.7,0c0.9-0.7,1.9-1.1,2.4-1.5c0.5-0.4,0.5-0.4,0.5-0.4l-3.7-1.1h-7c0,0-1.6,0.8-2.7,0.8c-1.1,0-3.5-0.8-3.5-0.8
		H839.4z"/>
	<path class="st0" d="M851.5,354.2c-1.3,0-2.8,0.8-2.4,1.9c0.4,1.1,0.7,1.1,1.7,3.5c1.1,2.4,2.4,4.9,2.4,4.9s2,0.8,2.1,0.3
		c0.1-0.5,0.5-1.5-0.4-2.8c-0.9-1.3-2-2.9-2-2.9l-0.7-2.3L851.5,354.2z"/>
	<path class="st0" d="M792.6,350.3c0,0-1.9-2.7-1.9-1.6c0,1,0.8,1.6,0.8,1.6s0.7,2.2,1.1,2.4c0.4,0.1,0.8-0.1,0.8-0.5
		S792.6,350.3,792.6,350.3z"/>
	<path class="st0" d="M797.5,347.1c0,0.9,0.1,1.5,0.5,1.6c0.4,0.1,1.1-0.8,1.1-0.8l-0.4-0.8C798.7,347.1,797.5,346.4,797.5,347.1z"
		/>
	<path class="st0" d="M801.3,345.2c0.4,1.2,0.8,1.6,0.8,1.6l0.8-0.7v-0.8C802.9,345.2,801.1,344.5,801.3,345.2z"/>
	<path class="st0" d="M772.9,346.8c0,0,0.4,0.6,0,1c-0.4,0.4-0.4,0.4-0.4,0.4h1.5v-2.1L772.9,346.8z"/>
	<path class="st0" d="M779.7,344c0,0-1.6,1.8-1.7,1.8c-0.1,0,0.1,0,0.1,0l2.3,0V344H779.7z"/>
	<path class="st0" d="M784.7,340c0,0-0.9-0.4-0.9,0.9c0,1.2,0.9,2.3,0.9,2.3s1.2,1.5,1.7,0.8c0.5-0.7,0.5-1.7,0.5-1.7l-1.1-1.4
		L784.7,340z"/>
	<path class="st0" d="M776.1,331.3c-0.4,0.2-3.6,1.7-3.6,1.7s-0.9,1.3-1.9,2.9c-0.9,1.6-0.5,2-1.6,2.7c-1.1,0.7-2.5,0-2.5,0
		l-1.6-3.6l3.6-4.3c0,0,1.3-1.5,3.3-1.2c2,0.3,2.1,0.3,2.8,0.5C775.3,330.2,777.3,330.7,776.1,331.3z"/>
	<path class="st0" d="M774.8,335.3c0.1,0.8,0.1,0.5,0,2.3c-0.1,1.7-0.4,0.9-0.8,1.4c-0.4,0.5-0.7,1.1-0.7,1.1s2.6,3.2,3.2,1.5
		c0.6-1.7,0.7-2.3,0.7-2.6s0,0.2,0-1.1c0-1.3,1-3.3-0.7-2.9C774.8,335.3,774.7,334.5,774.8,335.3z"/>
	<path class="st0" d="M781.7,331.9c0,0-1.6-0.1-2.5,1.3c-0.9,1.5-0.8,2.1,0,2.9c0.8,0.8-1.4,1.2,1.2,1.1c2.7-0.1,3.7-0.3,4.4-1.1
		c0.7-0.8,1.3-1.1,1.1-2.1C785.5,333,782,331.1,781.7,331.9z"/>
	<path class="st0" d="M769.2,315.9c-0.8,0.2-2.7-1.2-2.7-1.2s-0.9-1.9,1.2-1.9s3,0,3,0l2.5-1.2c0,0,2.9,0,3.2,0.8
		c0.3,0.8,2-0.8,2.7,1.3c0.7,2.1,1.7,2.3,1.2,3.6c-0.5,1.3-0.6,2.1-1.2,3.1c-0.6,0.9-0.6,2.6-0.6,2.6l-3.1-3.2c0,0,1.2-2.6,0-2.4
		c-1.2,0.2-4.6,0-4.6,0s-1.6,1.9-2.3,1.2c-0.7-0.7,1.5-1.9,1.5-1.9S771.3,315.4,769.2,315.9z"/>
	<path class="st0" d="M737.1,323c1.6,0.3,4.4,0,4.4,0l4.8-1.8l1.7-1.7l2-2.2c0,0,3.5-0.2,4.9,0c1.5,0.2,6.5-0.9,7.2,0.8
		c0.7,1.7,1.6,4.8,1.2,6c-0.4,1.2-1.5,3.3-2.3,4.1c-0.8,0.8-3.1,0-4.1,2.1c-1.1,2.1-1.2,3.2-2.3,4.5c-1.1,1.2-3.1,1.4-4,2.5
		c-0.9,1-3.1,0.7-5.7,1.6c-2.7,0.9-3.8,3-4.6,3.1c-0.8,0.2-0.4-1-2.7,0.7c-2.3,1.7-2.8,2.3-3.2,3.4c-0.4,1,0.9,2.1-1.5,2.6
		c-2.4,0.5-5-2.8-5-2.8s-3.7-3.1-4.8,0.2c-1.1,3.3,0.5,5.5,2.5,6.6c2,1.2,4,0.4,5.3,2.4c1.3,2,4.4,3.5,4.4,3.5s2,2.1,3.2,3.7
		c1.2,1.6,2.1,3.8,2.5,5c0.4,1.2,1.2,3.3,1.2,3.3s3.1,2.8,3.2,3.2c0.1,0.4,3.2,2.4,3.2,2.4s1.5,2.3,1.3,2.9
		c-0.1,0.7-1.1,0.7-1.1,1.5c0,0.8,2.4,1.1,2.5,2.5c0.1,1.5,0.7,1.9-0.3,3.7c-0.9,1.9-2.9,1.5-3.1,3.7c-0.1,2.3,1.1,2.9,1.1,4.4
		c0,1.5-2.5,0-1.7,2.8c0.8,2.8,3.3,3.2,4.6,4.4c1.3,1.2,4.6,1.7,4.4,3.2c-0.3,1.5-0.7,2.1-0.4,2.7c0.3,0.5,3.7,0.9,3.7,0.9
		s-0.3,1.3,0.3,2.7c0.5,1.3,2.8,1.5,3.3,1.5c0.4,0,1-1.2,1.6-1.3c0.7-0.1,2.1,1.1,1.6,2.5c-0.5,1.5,1.4,0.4,0.1,3.5
		c-1.3,3.1-3.8,2.7-3.8,2.7s-1.1-3.7-2-1.9c-0.9,1.9,1.2,3.7,1.2,6.1c0,2.4-2.5,0.3-3.5-2.1c-0.9-2.4-1.1-3.8-2.5-1.7
		c-1.5,2.1-2.4,2.4-3.8,2.4c-1.5,0-2.8-1.7-4.1,0.4c-1.3,2.1-1.8,0.1-3.1,2.1c-1.4,2-2.2,4.3-1.8,5.6s2.5,3.1,0.8,3.7
		c-1.7,0.7-5-1.7-8.2-2.3c-3.2-0.5-5.6-1.5-6.1-1.6c-0.5-0.1-2.5-2-1.7-4.2c0.8-2.3,0.7-1.1,0.9-3.7c0.3-2.7-0.4-2.7-0.1-3.8
		c0.3-1.2,0.4-2.3,1.5-3.3c1.1-1.1,2.7-2.1,1.5-3.7c-1.2-1.6-6.2-4.8-7.6-4.2c-1.3,0.5,1.9-1.3-2.1-2.8c-4-1.5-7.2-4.6-9.4-6.9
		c-2.3-2.3-4.2-1.9-2.8-4.5c1.5-2.7,1.3-2.5,2.8-4.2c1.5-1.7,1.7-2.8,1.7-2.8l1.1-5.3c0,0-1.5-2-0.9-3.1c0.5-1.1,0.7-0.4,0.5-1.1
		c-0.1-0.7-2.1-0.1-0.7-1.7c1.5-1.6,2.7-2.5,2.1-3.1c-0.5-0.5-3.2-2.3-3.2-2.3s-6.5-0.9-7.4,0.4c-0.9,1.3-1.7,1.2-3.3,2.1
		c-1.6,0.9-2,2.5-4,4.1c-2,1.6-2.5,0.7-3.7,2.1c-1.2,1.5-3.2,0.8-0.7,3.6c2.5,2.8,4.4,0.5,3.8,4.1c-0.5,3.6,0.4,4.6,0,6.6
		c-0.4,2,0.8,4,0.3,6c-0.5,2-2.3,0.4-2.4,4.9c-0.1,4.5-0.1,4-0.1,6c0,2-0.8,3.2-0.8,3.2l1.9,5c0,0-0.7,3.7-0.5,5.2
		c0.1,1.5,1.3,3.5,1.2,4.4c-0.1,0.9-0.1,0.4-0.7,2.9c-0.5,2.5-0.3,0.6-1.3,4.1c-1.1,3.5-0.5,6-0.5,6.8s-0.5,0.7,0.5,3.3
		c1.1,2.7,2.1,1.1,2.1,5s2.7,5.8-0.9,5c-3.6-0.8-6.9-3.5-8.1-1.7s-0.3,1.6-2.3,1.9c-2,0.3-2.1-0.1-2.5,0c-0.4,0.1-2.7,2.3-4.5,2.9
		c-1.9,0.5-1.1-1.6-4.2-2.5c-3.2-0.9-4.9-1.1-5.3-2c-0.4-0.9-2.1-1.7-1.2-3.6c0.9-1.9,2.9-4.1,2.9-6.5c0-2.4-0.1-4.8-0.1-4.8
		s-0.9-1.2-0.4-2.1c0.5-0.9,1.3-1.9,0.8-4c-0.5-2.1-2.3-2.8-0.5-4.2c1.7-1.5,2.9-2,3.3-4c0.4-2-0.3-7.8-0.1-10.9
		c0.1-3.1,0.7-3.8-0.3-6.1c-0.9-2.3-1.6-4.2-1.6-4.2s0.9-1.7,0.4-3.7c-0.5-2-0.1-4-1.2-4.6c-1.1-0.7-2.8-2.3-5-1.3
		c-2.3,0.9-4.4,1.6-5.2,2s-2.8,1.1-3.2,1.3c-0.4,0.3-3.1-2.7-3.1-2.7s-0.5-4.5-1.6-6.5c-1.1-2-1.6-1.2-1.6-2.9
		c0-1.7,0.8-2.3,0.9-3.8c0.1-1.6,0.3-3.2-0.3-5.2c-0.5-2-3.6-1.9-0.7-3.7c2.9-1.9,5.3-3.3,7.3-4.6c2-1.3,3.2-1.2,3.3-2.9
		c0.1-1.7,0-2.4,0.1-4.9c0.1-2.5-0.1-4.1,1.3-5.8c1.5-1.7,0.4-0.5,2.4-3.3c2-2.8,3.3-1.6,2.3-4.4c-1.1-2.8-1.1-2.8-1.1-2.8
		s0.1-3.8,0.1-5s-0.7-1.6-0.5-3.5c0.1-1.9-0.5-4.1,0.9-6c1.5-1.9,5.2-3.3,6-5c0.8-1.7-0.9-5.5,1.7-6.6c2.7-1.1,4.2-1.9,4.5-2.3
		c0.3-0.4,1.3-2.9,1.3-2.9s-1.2-4.1-0.8-6.1c0.4-2,0.9-3.6,1.5-4.6c0.5-1.1,2-3.8,1.6-5.4c-0.4-1.6-1.6-1.9-1.5-4.4
		c0.1-2.5-2.3-3.5,0.3-3.7c2.5-0.3,1.7-2.1,1.6-3.2c-0.1-1.1,0.3-0.9,1.1-2.4c0.8-1.5,1.9-1.2,2.9-2.3c1.1-1.1-1.5-4,0.9-5
		c2.4-1.1,3.6-1.6,4.5-2.3c0.9-0.7,1.6-3.8,2.4-4.6c0.8-0.8,2.9-3.1,2.8,0.7c-0.1,3.7,0.1,4.5,2.1,4.6c2,0.1,3.1-0.8,3.1-0.8
		s-1.3-3.1,0.7-4.1c2-1.1,3.3-1.8,3.3-1.8l0.8-3.6c0,0,0-5.3,2.4-5.4c2.4-0.1,6.9-0.4,9.7,0.7c2.8,1.1,7.8-0.5,8,1.1
		c0.1,1.6-0.5,3.2,1.6,3.8c2.1,0.7,4,1.3,6.4,1.5c2.4,0.1,7.2-1.6,7.4-0.9c0.3,0.7,4.1,2.7,4.1,2.7s2.5-2,5-0.1
		c2.5,1.9,6.1,1.7,7.6,1.7c1.5,0,3.6-0.1,5.2,1.2c1.7,1.3,5.5-1.1,7.6-1.5c2.1-0.4,3.1,0,4.2,0.5c1.2,0.5,6.4-1.2,9.2,0
		c2.8,1.2,8.1,1.9,8.5,1.9c0.4,0,2.9-0.8,4.4-1.5c1.5-0.7,3.6-1.1,4.4-2.1c0.8-1.1,0.8-0.9,2.1-2.3c1.3-1.3,0.3-2.1,2-2.8
		c1.7-0.7,4.2-1.5,4.2-1.5s0.7-2,1.1-2.5c0.4-0.5-1.6-0.9,1.2-1.9c2.8-0.9,3.2-0.8,3.7-1.5c0.5-0.7,3.6-4,4.6-5.2
		c1.1-1.2,1.7-5.8,3.5-3.3c1.7,2.5,3.6,3.2,4,3.7c0.4,0.5,0.1,1.6,0,2c-0.1,0.4,2,0.5,1.6,1.9c-0.4,1.3-1.6,0.7-2.5,1.7
		c-0.9,1.1-1.9,1.1-2.4,3.7c-0.5,2.7,0.8,2.5-1.5,4.4c-2.3,1.9-4.4,2.8-5,4.1c-0.7,1.3-4.2,3.7-5.7,6.2c-1.5,2.5-0.5,1.6-2.7,4.6
		c-2.1,3.1-4.4,5-8.5,5.4c-4.1,0.4-11.1,2-12.3,2c-1.2,0-4.8,0.4-6,0.7c-1.2,0.3-2.1-0.4-2.1-0.4s-2.9-0.9-4.6-0.5s-6-1.9-7.6-2.8
		c-1.6-0.9-7.3-0.7-8.6-0.4c-1.3,0.3-6-0.5-6-0.5s-3.1-0.4-4.9-0.1c-1.9,0.3-4.8,0.4-4.8,0.4s-2.5,0.5-4.6,0.8
		c-2.1,0.3-3.6,0.3-4.9-0.4c-1.3-0.7-2.1-2-4.6-1.6c-2.5,0.4-2.7,0.8-4.2,1.1c-1.6,0.3-2.9,0.8-4.6,1.1c-1.7,0.3-2.7,0.1-4.4,0.9
		c-1.7,0.8-5.3,0.1-5.3,0.1s-1.9-0.3-2.9-0.3c-1.1,0-2.9-0.9-2.9-0.9s-2-2-5.6-1.1c-3.6,0.9-9.8,2.9-11,7.2
		c-1.2,4.2-1.3,4.5-1.7,6.4c-0.4,1.9-1.6,1.7-2.1,4.4c-0.5,2.7-1.2,3.2-0.5,6.2c0.7,3.1-0.4,2.3,0.7,6.2c1.1,4,1.3,4,2.7,5.7
		c1.3,1.6,3.1,3.5,3.8,4.3c0.8,0.8,3.1,0,3.1,0s3.7,2.3,4.4,5c0.7,2.8,0.8,1.6,0.7,2.8c-0.1,1.2,1.7,1.6,1.7,2.3
		c0,0.7,0.3,1.9,1.1,2.4c0.8,0.5-2.5-0.3,3.5,0.7c6,1,7.7,1.6,8.4-0.3c0.7-1.9,10.5-15.8,13.3-15.2C733.8,320,736.3,322.8,737.1,323
		z"/>
	<path class="st0" d="M732.7,299.2c-1.1-0.3-2.4,1.1-2,1.5c0.4,0.4,0.8,1.1,2,0.4c1.2-0.7,1.6-0.8,1.6-0.8L732.7,299.2z"/>
	<path class="st0" d="M748.6,302.5c-1,0.2-3.8,0.9-4.4,1.5c-0.5,0.5-1.3,0.9-1.7,1.3c-0.4,0.4-2.7,0.8-3.2,1.2
		c-0.5,0.4-1.3,0.8-1.9,1.2c-0.5,0.4-1.7,0.5-2.1,1.3c-0.4,0.8-2.3,0.7-0.4,0.8c1.9,0.1,2.7,0,2.7,0l1.6-0.7c0,0,0.5,0.5,0.9-0.3
		c0.4-0.8-1.1-1.9,1.3-1.7c2.3,0.1,1.7-0.1,2.3,0.1c0.7,0.3,2.1-0.3,2.1-0.3l2.8-2l1.1,0.1c0,0,0.4-0.3,0.9-0.4
		c0.5-0.1,0.8-2.4,0-2.3C749.8,302.6,750,302.3,748.6,302.5z"/>
	<path class="st0" d="M757.7,308.9c-0.8,0.4-1.1,1.9-1.1,1.9l2.5-0.3c0,0,0.7-1.6,0.3-1.6C759,308.9,757.7,308.9,757.7,308.9z"/>
	<path class="st0" d="M741.7,443.7c-0.4-1.7,0.1-4.4-1.5-3.2c-1.6,1.2-2,1.5-2.8,3.2c-0.8,1.7-1.2,2.3,0.1,4
		c1.3,1.7,0.4,3.8,2.4,3.6c2-0.3,2.9-0.9,2.8-1.9c-0.1-0.9-1.1-3.7-1.1-3.7l1.1-1.3L741.7,443.7z"/>
	<path class="st0" d="M753.8,431.5c-1.9,1.5-3.5,2-2.8,3.8c0.7,1.9,2.4,2.7,1.9,4.1c-0.5,1.5-1.8,0.7-2,2.1c-0.2,1.5,0.4,1.7,0,2.9
		c-0.4,1.2-0.6,0.7-1.2,2.1c-0.5,1.5-1.7,3.2,0.3,2.5c2-0.7,3.8-2.8,3.8-2.8s-2,0.4,0,0.8c2,0.4,3.3-0.7,3.3-0.7s0.7-2.9,1.2-3.1
		c0.5-0.1,0.8-3.2,0.8-3.2l2.8-2.6c0,0-0.5-2.1,0.4-3.1c0.9-0.9,1.7-3.1,1.3-3.6c-0.4-0.5-0.4-3.5-2.4-2.5c-2,0.9-3.2,1.7-3.8,2.5
		C756.7,431.7,753.8,431.5,753.8,431.5z"/>
	<path class="st0" d="M764.6,435.7c-0.7,2.9-1.5,6.1-1.5,6.1s-0.7,5-2.4,6.2c-1.7,1.2-2.7,3.2-2.7,3.2s-0.8,0.6-0.7,2.6
		c0.1,2,2.3,4.2,3.8,2.4c1.6-1.9,1.9-4,3.3-4c1.5,0,2.8-0.4,3.3-1c0.5-0.7,0.4-3.3,1.9-2c1.5,1.3,4.4,1.7,5.2,0
		c0.8-1.7,5.2-3.9-0.8-6.5c-6-2.7-6.6-1.9-6.1-3.3c0.5-1.5,0.7-2.4,1.1-3.1c0.4-0.7,0.8-5.8,0.8-6.2c0-0.4-1.3-2.4,0.3-1.9
		c1.6,0.4,2.8,1.8,3.5,3.4c0.7,1.6,0.7,4.9,1.5,2c0.8-2.9,1.2-4.9,0.4-6.1c-0.8-1.2-2.8-2.5-2.8-3.7s1.1-2.3-0.7-2.4
		c-1.7-0.1-4.5,2.3-5.3,3.8c-0.8,1.6-1.2-0.1-1.2,4.2C765.5,433.9,764.6,435.7,764.6,435.7z"/>
	<path class="st0" d="M773.2,410.1c-0.1,0.2-0.4,0-0.5,0.1c-0.9,0.1-1.2,0.2-1.9-0.1c-0.8-0.3-2.5-0.3-2,1.9c0.5,2.1,0.9,2.3,2,3.7
		c1.1,1.5,3.5,1.5,4,0.7c0.5-0.8,1.6-2.9,1.6-2.9s0.7-2.1-0.1-2.7C775.5,410.2,774.9,407.6,773.2,410.1z"/>
	<path class="st0" d="M786.7,447.7c0.1-0.8-0.9-1.9-0.9-1.9l-2.3,1c0,0,0.8,2.7,1.7,2.6C786.2,449.1,786.7,447.7,786.7,447.7z"/>
	<path class="st0" d="M791.8,452.6l-1.3-0.7c0,0-1.3-0.9-0.9,0.7c0.4,1.6,1.1,2.1,1.1,2.1l2.5,0.3l0.7-1.6L791.8,452.6z"/>
	<path class="st0" d="M794.4,459.1c-0.5,0.3-2.1,2.1-1.6,2.4c0.5,0.3,2.4,0.3,2.4,0.3l1.7-1.3L794.4,459.1z"/>
	<path class="st0" d="M797,464c-0.8,0.3-1.7,0.8-1.1,2c0.7,1.2,1.1,1.6,1.1,1.6l2-1.2L797,464z"/>
	<path class="st0" d="M698.6,462.3c0,0-0.5-0.8-0.8,1.7c-0.3,2.5-0.3,2.4-0.3,4.4c0,2,0,1.5-0.5,2.5c-0.5,1.1-0.1,1.6,0,2.3
		c0.1,0.7,0.7,2,0.7,2s1.1-1.6,0.9,0c-0.1,1.6,0.7,2.3,0.9,0.9c0.3-1.3,0.3-1.1,0.3-2.4c0-1.3-0.4-2.4,0-2.9
		c0.4-0.5,0.9-0.8,0.7-2.7c-0.3-1.9,0.1-3.1,0.1-3.1l-1.3-2.9C699.3,462.1,699.4,460.5,698.6,462.3z"/>
	<path class="st0" d="M703.9,496.2c-0.5,0.1-2.4,0.5-2.4,0.5s-0.1,1.5,0.3,1.7c0.4,0.3,2.9,0,2.9,0s1.7,0.4,1.1-0.5
		C705.1,497,704.5,496.1,703.9,496.2z"/>
	<path class="st0" d="M714.5,505c0,0-3.5-1.2-3.8-1.2c-0.4,0-3.7-1.5-1.9,0c1.9,1.5,2.7,0.8,4.4,1.7c1.7,0.9,3.5,0.9,3.5,0.9
		L714.5,505z"/>
	<path class="st0" d="M733.3,502.6c-1.4,0.8,0.4,5.2,0,5.7c-0.4,0.5-0.9,1.6,0.2,0.9c1-0.7,1.3-1.2,1.3-1.6c0-0.4,0.7-1.2,0.7-1.2
		v-1.7C735.4,504.8,735,501.7,733.3,502.6z"/>
	<path class="st0" d="M908.4,384.1c-1.6,0.3-4.6,0.9-4.6,1.7c0,0.8,1.3,3.1,1.7,3.7c0.4,0.7-1.3,1.9,0.6,2.3
		c1.9,0.4,2.3,0.8,2.9-1.3c0.5-2.1,0.4-1.7,0.7-2.8c0.3-1.1,0.7-2.4,0.7-2.4L908.4,384.1z"/>
	<path class="st0" d="M899.8,385.7c-0.5,0.4-1.6,0.8-1.6,1.2s0.8,1.4,1.6,1.2c0.8-0.2,1.5-1.2,1.5-1.2S900.5,385.2,899.8,385.7z"/>
	<path class="st0" d="M896,388.1c-0.4,0.5-1.1-1.5-1.2,0c-0.1,1.5-0.9,2.2,0.6,2.7c1.5,0.5,2.3,0.8,2.3,0.1
		C897.7,390.3,896,388.1,896,388.1z"/>
	<path class="st0" d="M885.9,404.4c0,0-1.1-0.6-1.2,0.6c-0.1,1.2-0.8,1.7,0.5,1.9c1.3,0.1,2.1-0.8,2.1-0.8L885.9,404.4z"/>
	<path class="st0" d="M906.4,378.9c-0.9,0.5-2.8,0.7-2.7,1.7c0.1,1.1,0.1,2.1,1.3,1.6c1.2-0.5,1.3-0.9,1.3-0.9l0.6-1.5L906.4,378.9z
		"/>
	<path class="st0" d="M914.8,395.6c-0.4-0.1-2.8-1.3-3.1,0c-0.3,1.3-2.1,2.3-2.1,2.3s-2.1-0.4-2.6,0.3c-0.5,0.7-1.1,1.7-1,2.4
		c0.1,0.7,3.5,0,3.5,0l2.3-1.5c0,0,2.3,0.5,3.1-0.1c0.8-0.7,1.1-1.5,1.1-2C915.9,396.4,914.8,395.6,914.8,395.6z"/>
	<path class="st0" d="M922.9,396.8c-0.3-0.4-2.8-2-3.1-0.7c-0.3,1.3,0.5,1.5,0.9,1.8c0.4,0.2,1.6,0,1.6,0L922.9,396.8z"/>
	<path class="st0" d="M913.5,382.4c0.7-0.1-0.5,2.7-1.2,3.2c-0.7,0.5-0.6,2.5,0.6,2.5c1.3,0,2.7-2.1,3,0c0.3,2.1,3.7,4.9,5.5,5
		c1.8,0.1,2.9,2,4.3,0c1.5-2,1.1-1.9,2.8-3.7c1.7-1.8,6.2-2.5,6.1-1.4c-0.1,1.2-2,0.5,2.9,2.2c4.9,1.7,10.4,3.8,10.9,3.9
		c0.5,0.1,1.6-2.1,1.7-2.1c0.1-0.1,0.3-3.1,4-1.8c3.7,1.3,5.7,2.4,7.4,3.9c1.7,1.5,7,2.6,7,2.6s1.7,0.7,3.6,2c1.9,1.3,3.3,0.6,4.9,2
		c1.6,1.4,3.5,2.2,4.8,2.8c1.3,0.5,4,0.7,4,0.7s1.6-2.7,0.8-3.4c-0.8-0.7-1.3-1.5-1.1-1.9c0.3-0.4,0.7-2.8,0.4-3.3
		c-0.3-0.5-2.7-3.1-3.7-3.5c-1.1-0.4-2.3-2-2.3-2s1.3-1.6-0.7-3.2c-2-1.6-3.5-3.4-3.5-3.4s-1.7-2.8-3.6-2.8c-1.9,0-4.8-0.3-6.5,0
		c-1.7,0.3-2.4,0.8-6.2-1.7c-3.8-2.5-3.5-3.5-7.3-3.5c-3.8,0-5,0.4-6.4,1.1c-1.3,0.7-6,2-6.6,2.4c-0.7,0.4-2.5-2.1-2.5-2.1
		s1.9-2.7-0.9-1.3c-2.8,1.3-3.8,1.9-3.8,1.9l-6.2-1.1c0,0,0.4-1.8-1.6-1.2c-2,0.6-3.3,1.6-3.3,1.6s-2.9-0.9-4-0.8
		c-1.1,0.1-4.9,1.2-4.9,1.2s-2.1,1.9-1.6,3.6C910.8,382.4,908.4,382.8,913.5,382.4z"/>
	<path class="st0" d="M966.2,344.4c-0.3,0-0.5,0-0.7,0.1c-0.7,0.1-1,0.5-1.8,0.9c-1.1,0.5-3.1,0.4-3.5,0.7c-0.4,0.3,0,0.1-2,1.1
		c-2,0.9-2,0.9-2,0.9s4.9,2.3,6,3.1c1.1,0.8,2.3,0.9,2.3,0.9l3.8,0.5c0,0,1.3,0.3,2.7,0c1.3-0.3,0.5-1.8,1.6-2.2
		c1.1-0.4,0.9-2,1.5-1.6c0.5,0.4,2-0.2,2-0.2s-1.5-2.5-2-2.9c-0.5-0.4,0-1.6-1.5-1.2c-1.5,0.4-2.4,1.1-2.8,1.2
		c-0.4,0.1-0.9-1.5-1.9-1.3C966.9,344.5,966.2,344.4,966.2,344.4z"/>
	<path class="st0" d="M902.6,334.5c0.3-0.6-2.5-1.1-3.1-1c-0.5,0.1-1.5,0.2-2.1,1c-0.7,0.7-1.1,1.5-1.7,1.8c-0.7,0.3-2.1,0.7-2.7,1
		c-0.5,0.2-1.1-0.8-0.9,1.6s0,4.8,2.3,4.5c2.3-0.3,2.5,1.1,3.7,0c1.2-1.1,3.5-1.2,4.5-1.3c1.1-0.1,4.4,0,4.4,0s0.3,0.6,1.5,0.9
		c1.2,0.3,1.1,0.7,1.9,0.3c0.8-0.4,2.4-1.1,2.4-1.1s-0.3-1.2-1.3-2.1c-1.1-0.9-3.5-2.1-3.5-2.1s0.3-2-0.7-2c-0.9,0-2.1,0.3-2.1,0.3
		S902.3,335.1,902.6,334.5z"/>
	<path class="st0" d="M897.5,329.3c-0.4-0.3-3.3,0-3.3,0s-0.7-0.8-1.1-0.1c-0.4,0.6,0.1,1.6,1.1,1.6c0.9,0,2.3-0.7,2.7,0
		c0.4,0.7,2.3,1.6,2.7,1c0.4-0.6,0-1.3,0-1.3L897.5,329.3z"/>
	<path class="st0" d="M886.9,307.9l0.9-2.1l-0.9-1.6l-1.1-1.1c0,0-1.9,2.5-2,3.5c-0.1,0.9-0.8,1.9,0.1,2.5c0.9,0.7,0.6,1.3,1.7,0.8
		C886.8,309.4,886.9,307.9,886.9,307.9z"/>
	<path class="st0" d="M887.2,313.9c-0.8,0.1-1.4,0-1.5,1.2c-0.1,1.2,0.7,1.5,1.5,1.6c0.8,0.1,1.3,0,1.3,0l0.1-1.4L887.2,313.9z"/>
	<path class="st0" d="M893,306.1c-1.1,0.1-0.4-2.4-1.7-1.1c-1.3,1.3-2.3,2.7-1.5,3.7c0.8,1.1,0.8,1.7,2.2,2.7c1.5,0.9,1.7,0.5,2,1.7
		c0.3,1.2,0.8,1.7,0,2.2c-0.8,0.6,0.3,3.6,1.1,3.1c0.8-0.5,1.5-0.4,2.1-1.7c0.7-1.3,1.5-0.7,1.5-1.4c0-0.8,0-2,0-2s-2-1-0.7-1.8
		c1.3-0.8,2.1-1,1.6-2.3c-0.4-1.3,0.4-3.1-2.2-4c-2.5-0.9-2.2,0.7-2.8,1.4c-0.6,0.6-1.4,0.2-1.1-0.6
		C893.8,305.3,893,306.1,893,306.1z"/>
	<path class="st0" d="M903.4,315.9c0,0-3.2-0.4-3.5,0c-0.3,0.4-1.3,0.4-0.1,1.9c1.2,1.5,0.5,2.1,2.7,1.6c2.2-0.5,3-1.6,2.9-2
		C905.1,316.9,903.4,315.9,903.4,315.9z"/>
	<path class="st0" d="M903.9,272.2c-1.6,0.8-3.3,0-3.3,0s-0.9-1.2-1.4,0c-0.6,1.2-0.6,1.9-1.1,2.4c-0.5,0.5-1.7-0.4-2,2.4
		c-0.3,2.8-0.5,2.9,0,4.5c0.5,1.6,1.2,3.3,2.1,3.5c0.9,0.1,2.9-0.8,2.9,0.7c0,1.5-1.3,3.1-1.3,3.1s-1.2,0.1-0.7,1.7
		c0.5,1.6,1.4,1.3,1.4,2.3c0,0.9-0.8,2.1-0.8,2.1l0.6,3.1c0,0-0.7,1.7-0.6,2.7c0.1,0.9,0.9,0.9,2.4,2c1.4,1.1,2.8,1.5,3.8,4.1
		c1.1,2.6-0.7,3.8,2.3,4.9c2.9,1.2,3.6,0.9,3.6,0.9s-1.9-3.7-2.8-5.8c-0.9-2.2-2.1-3.7-2.1-4.4c0-0.7,1.3-0.7-0.1-2.4
		c-1.5-1.7-2.3-3.5-2.3-3.5s-0.8-1.6,0.1-2.1c0.9-0.5,2.7-0.4,2-2.2c-0.7-1.8-1-2.5-1.4-3.3c-0.4-0.8-0.8-1.6,0-2.5
		c0.8-0.9,1-2,2.8-3.1c1.7-1.1,4.9-1.3,6.1-0.7c1.2,0.7,0.7-0.7,1.7,0.5c1.1,1.2,3.1,1.7,4,1.5c0.9-0.3,3.1,0.1,3.8,0.7
		c0.8,0.5,4.1,0.8,4.1,0.8s-1.3-4.6-1.3-5s-2-2.7-2-2.7l-5.8-0.5c0,0-3.1-2.8-3.2-3.2c-0.1-0.4-1.9-1.7,0.7-2.9
		c2.5-1.2,5.7-3.2,5.7-3.2l4.1-2.8c0,0,0.7,2,0.9,0c0.3-2,0.9-3.8,0.9-3.8V258c0,0,2.9-2.5,2.1-2.8c-0.8-0.3-2,0-2-1.3
		c0-1.3,0.3-2.3,0.3-2.3s1.6-3.2-2.1-2c-3.7,1.2-8.1,3.2-10,4.2c-1.9,1.1-3.2,0.4-3.2,2.8c0,2.4,1.5,3.6,1.6,4.6
		c0.1,1.1,0.1,2.1-1.6,2.5c-1.7,0.4-2.8,0-3.6,0.9c-0.8,0.9-1.6,2.5-1.7,3.1c-0.1,0.5-1.1-0.5-0.8,1.7c0.3,2.3,0.3,2.8-0.5,2.9
		C905.5,272.6,903.9,272.2,903.9,272.2z"/>
	<path class="st0" d="M900.3,265.6c-0.4,0.4-2.4,1.3-2.5,1.9c-0.1,0.5-0.1,2.1-1.1,2.4c-0.9,0.3-0.9,0.3-0.9,0.3l0-2.3
		c0,0-0.8,0.3-0.9-1.5c-0.1-1.7-0.3-2.7,0-3.6c0.3-0.9-0.2-2.3-0.2-2.3s-0.8-3.2,0-4.2c0.8-1.1-0.5-1.9,2.6-2.9c3.1-1.1,3-2.4,3-2.4
		s-0.4,0-0.7-0.8c-0.3-0.8-0.3-2-1.1-1.7c-0.8,0.3-2,2.6-1.3,0c0.7-2.6,3-4.7,3-4.7s-0.9-0.1,0-1.7c0.9-1.6,0.8-2.3,1.9-2.9
		c1.1-0.7,2.1-1.6,2.9-2.4c0.8-0.8,2.5-2.7,2.5-2.7s0.9-1.3,1.1-0.1c0.1,1.2-0.1,1.5-1.3,3.1c-1.2,1.6-2.1,1.7-2.8,3.1
		c-0.7,1.3-1.3,1.3-0.9,2.9c0.4,1.6,2.4,2.5,2.4,2.5s4.6,1.7,2.7,2.8c-1.9,1.1-3,3.5-3,3.5s2.4-0.9,1.5,3c-0.9,3.8-2.4,4.8-2.3,5.7
		c0.1,0.9,0.8,1.7,0,2c-0.8,0.3-1.9-0.8-1.9,0.4C903.1,264,900.3,265.6,900.3,265.6z"/>
	<path class="st0" d="M921.8,222.3c-0.3-0.8-3.1,2-3.1,2l-2.3,3.2l-1.1,1.2l-1.9,0.7l-1.2-3.5c0,0-0.3-2.1-0.9,0
		c-0.7,2.1-0.3,2.7,0,3.5c0.3,0.8,0.5,1.2,1.4,1.3c0.9,0.1,1.9-0.4,1.9,0.9c0,1.3,0,2.5,0,3.1c0,0.5,0.8,2.4,0.9,2.8
		c0.1,0.4,4.1-0.9,4.1-0.9s2.7,0.3,3.2-0.1c0.5-0.4-1.5-1.2,1.2-2.3c2.7-1.1,2-2.1,2-3.1c0-0.9-1.6-2.1,0.1-2.7
		c1.7-0.5,2.8,1.2,2-1.6c-0.8-2.8-1.7-3.6-1.7-3.6l-1.2-2.4c0,0-2.3-0.9-2.3,0.4C923.2,222.6,922.2,223.5,921.8,222.3z"/>
	<path class="st0" d="M836.6,235.2c0,0-0.8,0.8-0.9,1.3c-0.1,0.5,0.9,0.5,0.9,0.5s0.9-0.4,1.1-1.2
		C837.8,235.1,836.6,235.2,836.6,235.2z"/>
	<path class="st0" d="M837.7,228.4c-0.7,0-2.3-0.4-2,0.6c0.3,1,2,1,2,1s0.7,0.5,1.1,0.1C839.2,229.8,837.7,228.4,837.7,228.4z"/>
	<path class="st0" d="M837.7,216.4c0,0-0.2-0.1-0.5,0.9c-0.2,1.1,0.5,2.7,0.5,2.7l1.1,0.6c0,0-0.2,0.3,0-0.6
		c0.2-0.9,0.2-0.9,0.2-0.9v-1.6L837.7,216.4z"/>
	<path class="st0" d="M840.9,204.9l-0.9-1.1c0,0-0.7,0-0.1,1.1c0.5,1.1,1.1,1.6,1.1,1.6S841.8,206,840.9,204.9z"/>
	<path class="st0" d="M843,196.1c-0.1-0.1-0.2-0.3-0.3-0.4c-0.5-0.4-1.3-1-1.4-0.8c-0.1,0.3,0,1.2,0,1.2s1.7,2.9,2.4,3.1
		c0.7,0.1,0.5,1.7,0.7,0.1C844.5,197.6,844.7,197.2,843,196.1z"/>
	<path class="st0" d="M841.9,191.4c-0.4-0.5-2.9-1.5-2.9-1.5s-1.1,0.7-0.2,1.5c0.9,0.8,1.6,0.9,1.6,0.9s1.6,0.5,1.5,0.1
		C841.8,192.1,841.9,191.4,841.9,191.4z"/>
	<path class="st0" d="M878.2,172.4c0-0.4,0-1.9,0-1.9l-1.1-2.3c0,0-1.7-2.1-2.4-0.3c-0.7,1.9-1.1,2.8-1.1,3.5c0,0.7,0.9,2.4,0.9,2.4
		s1.7,0,1.3,1.3c-0.4,1.3-0.9,2-0.9,2l0.9,0.7l1.5-1.2l0.8-1.3V172.4z"/>
	<path class="st0" d="M875.1,179.3c-0.8,0.5-1.5,1.3-1.5,1.3s-1.9,1.7,0,1.7c1.9,0,1.9,0.4,2.3-0.3c0.4-0.7,0-1.2,0-1.2L875.1,179.3
		z"/>
	<path class="st0" d="M875.9,186.2l-1.5-0.5c0,0-0.5,1.6,0,2.3c0.5,0.7,2,2.8,2.2,2c0.3-0.8,0-2.5,0-2.5l-1.2-1.7L875.9,186.2z"/>
	<path class="st0" d="M292.3,342.7c0-3.7-1.3-6.6-2-5.7c-0.7,0.9-4.1,2.8-4.1,2.8s-1.1-0.1-1.1,2.1c0,2.3,0.4,3.3-0.7,3.6
		c-1.1,0.3-2.8-0.4-3.8,1.2c-1.1,1.6-3.1,2.1-1.7,3.6c1.3,1.5,2.4,1.9,2.8,1.9c0.4,0,3.7,0,3.7,0.4c0,0.4,2.7,0,2.7,0s5.6-1.3,6.1,0
		c0.5,1.3,0.3,0.4,1.3,1.6c1.1,1.2,1.1,3.1,1.1,3.1s0.3,0.7,0,2.1c-0.3,1.5,1.3,2.4,1.9,3.5c0.5,1.1,0.8,2.9,0.4,3.5
		c-0.4,0.5-0.9,1.1,0.2,3.3c1.1,2.3,4.1,5.2,4.1,5.2s6,0.7,6.5,1.1c0.5,0.4,2.7,2.3,2.7,2.3s1.5-0.5,1.6,0.3c0.1,0.8-1.1,1.6,0,2.1
		c1.1,0.5,1.1,0.1,2.4,0c1.3-0.1,0.4-0.1,2.8,0.3c2.4,0.4,6,1.5,2.9-0.7c-3.1-2.1-6.1-4-6.1-4s1.7-5.7,5-7c3.3-1.3,4-1.9,3.5-2.3
		c-0.5-0.4-3.1-1.2-5.8-1.9c-2.8-0.7-4.4-0.5-6-1.7c-1.6-1.2-2.8-0.5-3.6-3.2c-0.8-2.7-2-5.3-2-5.3l-0.7-4.6l0.5-1.1
		c0,0,1.2-1.6,0.4-2.1c-0.8-0.5-1.9-1.9-1.9-1.9s-2.4-2.9-2.3-3.7c0.1-0.8,0.4-1.1,0.1-1.9c-0.3-0.8,0.1-1.5-2.5-2.6
		c-2.7-1-4.2-0.6-4.2-0.6l-1.7,2.5c0,0,1.1,5,1.1,5.8c0,0.8,0.5,1.9-1.3,0.8C292.5,344.3,292.3,342.7,292.3,342.7z"/>
	<path class="st0" d="M344.6,371c0.2,0.4-1.7,4.8-1.7,4.8s0.9,1.7,0.5,2.5c-0.4,0.8-0.8,1.3-0.5,2.1c0.3,0.8,1.7,1.9,1.7,1.9
		s-0.6,0.8-0.9,1.5c-0.3,0.7,0.4,1.6,1.7,1.5c1.3-0.1,4-0.5,4.2-0.9c0.3-0.4-0.7-1.5,0-2c0.7-0.5,1.7-0.4,2.3,0.1
		c0.5,0.5,1.3,2,1.3,2v1.6c0,0,3.3,1.9,3.7,0c0.4-1.9,0.1-2.5,1.2-2.9c1.1-0.4,2.8-0.9,2.5-1.8c-0.3-0.9-0.7-2.4-0.7-2.4l0.7-1.7
		l0.9-1.9l-0.9-3.2c0,0-0.6,0.4-0.8-1.2c-0.3-1.6,0.3-2.3-1.7-2.8c-2-0.5-2-0.8-3.6-1.1c-1.6-0.3-3.6-0.9-3.6-0.9s-1.5-1.1-2.5-0.4
		c-1.1,0.7-2.4,1.9-2.4,1.9S343.9,369.2,344.6,371z"/>
	<path class="st0" d="M339.8,375.2c-0.1-0.8-1.5-1.1-1.9-0.7c-0.4,0.4-0.8,1.6-0.8,1.6v0.5l1.9-0.5L339.8,375.2z"/>
	<path class="st0" d="M329.4,374.4c0,0-0.8-1.2-0.8,0c0,1.2,0.8,1.8,0.8,1.8h0.5l0.4-1.8H329.4z"/>
	<path class="st0" d="M322.7,375.5c0,0-1.1,0.5-1.1,1.2c0,0.7,1.1,1.2,1.1,1.3c0,0.1,0.8,0,0.8,0l1-0.7v-1.2L322.7,375.5z"/>
	<path class="st0" d="M382.8,338c-0.4,0-2.5,0-2.5,0l-0.5,2.1c0,0,0.9,0.7,2,0.5c1.1-0.1,2-0.5,2-0.5L382.8,338z"/>
	<path class="st0" d="M404.9,325c0-0.4-1.5-2.1-1.5-2.1l-3.2-0.6c0,0-0.5-0.1-1.3,0.6c-0.8,0.6-0.7,1.6-1.1,2.9
		c-0.4,1.3-1.2,1.9-1.2,2.5c0,0.7,0.1,1.3,1.2,1.3c1.1,0,2.9-0.8,2.9-0.8s0.7-0.8,2.4-1.5c1.7-0.7,1.3,0.4,1.7-0.7
		C405.3,325.7,404.9,325,404.9,325z"/>
	<path class="st0" d="M400.9,319.6c0-0.1-2.6-0.9-2.6-0.9s-1.7,0-1.6,0c0.1,0-0.7,0.4-1.5,0.9c-0.8,0.5-2.1,0.5-2.3,0
		c-0.1-0.5-2-4.2,0-4.4c2-0.1,3-0.5,3.5,0c0.5,0.5,1.1,0.9,1.8,1.3c0.7,0.4,2.6,0.5,2.6,0.5s1.4,1.1,1.8,1.6
		c0.4,0.5,1.6,0.3,0.9,1.3c-0.7,1.1-1.2,1.1-1.2,1.1L400.9,319.6z"/>
	<path class="st0" d="M400.3,314.3c-0.4,0.3-2.3,0-2.3,0l-1.2-2.8c0,0,1.2,0.5-0.8,0c-2-0.5-3.2-0.4-3.8-0.8s-1.9-1.2-2-1.6
		c-0.1-0.4-0.8-0.7,0-2.3c0.8-1.6,1.3-1.7,1.3-2.5c0-0.8-0.8-0.1-0.1-1.5c0.7-1.3,0.7-2.3,0.8-3.5c0.1-1.2-0.5-3.1-0.5-3.1l0.5-2
		c0,0-2.5-2.8-2.4-3.2c0.1-0.4,0.1-1.5-0.5-2.9c-0.7-1.5,2,0.1-1.9-2.4c-3.8-2.5-2.9-2-2.8-4.8c0.1-2.8,0-5.8-0.2-6.6
		c-0.2-0.8-1-3.3-1-3.3s0.3-2.4,0.1-3.7c-0.1-1.3,0.5-3.5,0.5-3.5s1.3-0.4,1.5-2.4c0.1-2,0.1-2.7,0.4-3.2c0.3-0.5,0.8-1.1,1.3-2.4
		c0.5-1.3,0-2.9,0.7-3.7c0.7-0.8,0.5-1.5,2.5-2.7c2-1.2,4.6-3.2,4.8-3.6c0.1-0.4,0.9-1.5,0.9-1.9c0-0.4,1.3-1.2,1.3-1.2l1.2-1.6
		c0,0-2.7-1.3-0.3-2c2.4-0.7,3.8-0.9,3.8-0.9s2.9,0.5,3.5,0.9c0.5,0.4-1.2,0.9,0,3.1c1.2,2.1,3.5,6.2,4.2,8c0.8,1.7,3.3,4.8,3.3,4.8
		s2.9,2,3.3,3.3c0.4,1.3,1.5,1.2,3.5,2.1c2,0.9,2,0.7,2.8,2.5c0.8,1.9,3.2,3.8,3.2,3.8s1.6,2.4,7.7,1.7c6.1-0.7,8.2-2.3,8.2-2.3
		s11.4-0.5,14.9-0.5c3.5,0,8.4-0.1,9-0.5c0.7-0.4,1.1-3.1,2.1-3.3c1.1-0.3,3.2-0.5,4-0.9c0.8-0.4,0.9-0.5,2-2.4
		c1.1-1.9,0.8-2.4,3.2-4.2c2.4-1.9,3.3-3.6,8.4-3.3c5,0.3,9.8-1.7,10.5,0.4c0.7,2.1-1.9,2.5,0.7,3.2c2.5,0.7,5-1.1,6.1-0.3
		c1.1,0.8,3.1,3.3,3.1,3.3s4.5-1.9,5.4,0c0.9,1.9,3.2,2.9,3.2,2.9s9-6.6,11.4-6.6c2.4,0,10.4,0.7,11.9-0.1c1.6-0.8,3.1-9.7,5.4-11.5
		c2.4-1.9,6.2-5.8,7.4-7c1.2-1.2,0.9-6.8,1.1-9.2c0.1-2.4,0.1-4.5,2.1-7.4c2-2.9,9.4-11.3,12.5-15c3.1-3.7,3.2-8.4,3.5-11.8
		c0.3-3.5-0.9-7.6,1.1-8.9c2-1.3,2.8-1.6,3.6-3.6c0.8-2,1.9-5.3,1.9-5.3s1.6-2.4,3.6-2c2,0.4,3.7,0,3.7,0s2.3,0.6,3.8,0
		c1.6-0.6,2.5-3.1,4.4-1.3c1.9,1.9,4.4,1.9,4.8,1.9c0.4,0,3.5-0.8,5.4-0.9c2-0.1,7.6-0.8,8.6-0.1c1.1,0.7,6.9,2.5,6.9,2.5l5.4,1.3
		l0.9,1.2c0,0,2.4,2,0.5,2.3c-1.9,0.3-4.9-0.4-4.8,0.7c0.1,1.1,1.9,2.4,2.7,2.9c0.8,0.5,2.8,2.1,2.8,2.1s2.9,0.9,2.9,1.9
		c0,0.9-3.8,2.1-3.8,2.1s-2.1,2.3-2.1,2.7c0,0.4-1.2,1.9-1.2,1.9l-2.9-0.7c0,0-4-0.4-4.4,0s-3.6,0-3.6,0s0.1-0.1-0.8-0.7
		c-0.9-0.5,1.1-0.9-0.9-0.5c-2,0.4-1.6,2.5-1.2,3.1c0.4,0.5,3.3,1.1,4.8,0.4c1.5-0.7,2.5-1.7,2.9-0.8c0.4,0.9,0,1.5,0,2.1
		c0,0.7,2.4,1.6,2.4,1.6s2.3,2.5,2.1,3.3c-0.1,0.8-0.9,3.2-1.7,3.3c-0.8,0.1-0.8,1.2-0.3,2.1c0.5,0.9,2.1,1.2,2.1,2.8
		c0,1.6-1.1,1.2-1.2,2.1c-0.1,0.9-0.1,1.9,0.3,2.1c0.4,0.3,2.3,0.9,3.2,1.2c0.9,0.3,2.5,0.8,4.1,1.6c1.6,0.8,2.8,0,3.5,0.5
		c0.7,0.5,0.4,1.3,1.5,3.8s3.2,4.6,3.7,5.2c0.5,0.5,2.1,1.9,2.7,3.6c0.5,1.7,0.9,3.5,0,3.7c-0.9,0.3-2.3,1.1-2.3,1.1h-2.5
		c0,0-2.7-0.3-2.9,0.3c-0.3,0.5-0.8,1.3-0.8,2.3c0,0.9,1.5,3.5,1.5,3.5s2.8,2.4,2.9,2.8c0.1,0.4-0.4,1.2,0.4,1.6
		c0.8,0.5,2.1-0.2,2.7,0.7c0.5,0.9,1.6,2.4,1.6,2.4s0.8,0.1,2.5,1.7c1.7,1.6,5.2,4,5.2,4s1.6,1.1,1.6,1.5c0,0.4,2.4,1.3,2.4,1.3
		l2.5,1.9c0,0,3.3,4.2,4.2,5.2c0.9,0.9,1.5,1.1,1.9,1.7c0.4,0.7,1.2-0.4,2.5,0.4c1.3,0.8,1.9,2,1.9,2l-1.9,2.4l-3.1,2
		c0,0-2.7-0.5-3.1-0.5c-0.4,0-1.1,0.4-2.8,0.8s-5.8-0.3-5.8-0.3s-4.6-0.8-5.2-0.8c-0.5,0-3.1-1.1-3.1-1.1s-1.5-1.7-1.9-2
		c-0.4-0.3-1.2-1.7-1.3-0.7c-0.1,1.1,0.1,1.5,0.4,2.8c0.3,1.3,1.7,1.6,0.4,2.5c-1.3,0.9-2.1,0.4-3.2,0.4c-1.1,0-2.8-0.7-3.2,0.4
		c-0.4,1.1-1.5,2.9-1.9,4.8c-0.4,1.9-2,3.8-2.4,5.4c-0.4,1.6-1.2,4.1-1.2,4.1s-1.7,4.5-1.7,4.9s-0.1,2.4-0.9,3.6
		c-0.8,1.2-2.4,2.9-2.4,2.9s-1.1,1.6-1.1,2.7c0,1.1,1.2,3.6,0.8,4c-0.4,0.4-0.3,2.1-0.7,2.9c-0.4,0.8-0.9,1.3-0.9,2.5
		c0,1.2-1.3,1.7-1.7,3.2c-0.4,1.5-1.1,2.7-1.5,3.5c-0.4,0.8-0.8,2.4-0.8,2.4l-1.6,2.7c0,0-1.1,2.8-1.7,3.5c-0.7,0.8-4.2,4.2-4.2,4.2
		s-3.6,2-4.4,2.7s-2-0.3-3.3,2.1c-1.3,2.4-2.9,3.1-3.7,3.7c-0.8,0.7-2.3,2-2.3,2s-2.5,1.3-3.2,1.9c-0.7,0.5-2.7,1.2-2.8,1.9
		c-0.1,0.7-2.1,1.5,0.5,1.1c2.7-0.4,4-1.3,4.4-1.1c0.4,0.3,0.4,4.4,0.4,4.4l-0.1,3.7l-2.1,1.6c0,0-1.3,0.1-1.3,0.8
		c0,0.7,3.5,0.9,3.5,0.9s1.1-1.9,1.3-0.9c0.3,0.9,0,1.2-0.1,1.9c-0.1,0.7,1.5,0.9,1.5,0.9s0.8,1.5,0.3,2.3c-0.5,0.8-0.8,1.6-1.1,2.3
		c-0.3,0.7-0.4,0.4-0.4,1.7c0,1.3-0.3,2.5-0.3,2.5s-0.9-0.9-1.6-0.8c-0.7,0.1-2-0.3-2.4,0.8c-0.4,1.1-1.2,3.7-1.2,3.7s0.7,0,0.5,2.3
		c-0.1,2.3,0.3,3.1-0.1,3.7c-0.4,0.7-0.8,2.3-0.8,2.3l-0.7,1.7c0,0,0.5-1.1-2.1-1.7c-2.7-0.7-3.5-0.8-2.9,0.9
		c0.5,1.7,2.4,2.4,2.7,3.1c0.3,0.7,1.2,1.1,0.4,1.6c-0.8,0.5-1.9,0.7-1.9,0.7l-0.7,2.1c0,0,2.8,0,3.1,0.7c0.3,0.7,0.5,0.4,0.7,1.3
		c0.1,0.9,0,1.6,0,1.6s-1.5,0.3,0.1,1.3c1.6,1.1,2.7-1.7,2.8,0c0.1,1.7-0.9,2.8-1.1,3.6c-0.1,0.8-0.4,1.9-0.7,3.2
		c-0.3,1.3-0.1,4-0.1,4s0.1,1.5-0.3,2.5c-0.4,1.1-2.4,2.1-2.4,2.1s-1.1,0.1-1.6,1.3c-0.5,1.2-3.2,3.5-3.3,0.8
		c-0.1-2.7,0.1-5.2,0.1-5.2l-0.5-4l-2.9-2.1c0,0-2.9-0.8-4.2,0.9c-1.3,1.7-12.3,4-13.7,5.2c-1.3,1.2-7.4,3.7-9.2,4.9
		c-1.7,1.2-6.4,2.3-7.3,2.5c-0.9,0.3-2.5,2.8-2.5,0c0-2.8-0.3-3.1,0.1-5c0.4-2-0.1-3.1,0-5c0.1-2,0.4-2.5,0.3-3.3
		c-0.1-0.8-3.8-3.7-3.8-3.7l-5.3-2.5l-2.1-1.2H525c0,0-2-1.9-3.2-1.3c-1.2,0.5-2.8,3.8-5,4.2c-2.3,0.4-4.1,0.1-4.8,0.1
		c-0.7,0-2-1.7-1.2-2.1c0.8-0.4,2-1.5,1.2-4.2c-0.8-2.8-0.4-3.6-2.1-2.8c-1.7,0.8-2.9,2.4-3.2,3.3c-0.3,0.9-0.9,1.1-0.9,1.1
		s-3.3-3.2-4.5-4c-1.2-0.8-3.3-2.8-3.3-2.8l-2.5,1.5c0,0-2.3,1.1-3.8,2.8c-1.6,1.7-4.5,3.1-4.5,3.1s-1.3,1.2-2.1,1.9
		c-0.8,0.7-3.2,0.5-3.2,0.5s-4.6-3.2-6-3.2c-1.3,0-4.9,0-5.8,0.7c-0.9,0.7-4.2,1.7-5.2,2.9c-0.9,1.2-3.3,0.3-3.3-0.8
		c0-1.1-1.1-3.1-0.9-3.8c0.1-0.8,0.1-3.1,0.1-3.1l0.8-3.5l-2-5.2c0,0-1.3,2.1-1.9,2.5c-0.5,0.4-2,0.8-2.5,0.8
		c-0.5,0-0.4,1.1-1.3-0.3c-0.9-1.3-3.2-2.7-3.2-2.7s-1.7,0.5-4.4,1.9c-2.7,1.3-2.7,1.5-4.4,2.3c-1.7,0.8-3.1-0.3-4.2-0.8
		c-1.2-0.5-4-2.1-4.8-1.9c-0.8,0.3-0.5,0-1.3,0.9c-0.8,0.9-1.7,0.8-1.7,0.8s1.2,0.1-1.1-2.4c-2.3-2.5-3.6-3.3-4.6-2.4
		c-1.1,0.9-2.4,2.3-2.7,2.8c-0.3,0.5-4.2,0.5-4.2,0.5s-1.6-1.8-0.9-2.4c0.7-0.6,2-2.4,2-2.4l-0.1-2.1c0,0-1.7-1.1-1.6-1.7
		c0.1-0.7,0.7-2.1,0.7-2.1l0.5-1.6c0,0-0.9-2.4-1.6-3.7c-0.7-1.3-1.1-1.3-1.2-2.4c-0.1-1.1-0.3-4-0.3-4s-0.1-2.3-0.1-3.5
		c0-1.2-2.1-3.3-2.1-3.3l-2.1-2.9c0,0,2.1-4.6,2.5-5.7c0.4-1.1,0-3.1,0.4-3.9c0.4-0.8,0.4-1.7,0.4-1.7l-0.1-1.6c0,0-2.8-2-2.8-2.7
		c0-0.7,0.1-0.1,0.3-1.2c0.1-1.1,0.3-3.3-0.5-3.7c-0.8-0.3-1.6-1.3-1.6-1.3s-1.6-1.2-1.6-2.4c0-1.2,0-2.1-0.4-2.3
		c-0.4-0.1-1.7-0.7-1.7-0.7l-2.7-2.5l-0.3-1.2C402.2,315.8,401.5,313.4,400.3,314.3z"/>
	<path class="st0" d="M981.7,302.9c0.3-0.5-0.1-0.1-0.8-1.6c-0.7-1.5-1.1-2.4-1.1-2.4s0.7-2.4-1.1-0.9c-1.7,1.5-2.3,2.9-2.3,2.9
		s-0.5,1.7,0.8,2c1.3,0.3,2.9,0.3,3.1,0.9c0.1,0.7,0.7,1.6,0.7,1.6s1.3,0.1,1.3,0.7c0,0.5,0.5,1.3,0.5,1.3s5,1.1,5.2-0.7
		c0.1-1.7,0.4-2.1-1.1-2.1c-1.5,0-2.9,0-2.9,0s0.5-0.9-0.5-1.1C982.5,303.4,980.9,304.2,981.7,302.9z"/>
	<path class="st0" d="M985.4,297.5c0,0-2.7,0.9-1.2,2.1c1.5,1.2,2.7,3,2.9,3c0.3,0,2.3,1.4,2.1,2c-0.1,0.7,2.4,1.1,3.1,0
		c0.7-1.1,1.7-0.4,2.1,0c0.4,0.4,3.2,0.7,3.7,0c0.5-0.7,2.3-0.2,1.2-2c-1.1-1.8,0.3-2.1-2.1-2.8c-2.4-0.7-2.5,0-3.1-1.1
		c-0.5-1.1-1.3-1.3-1.9-1.3c-0.5,0.1-0.9-2.2-1.7,0c-0.8,2.2-2.2,0.1-2.4,0C987.9,297.4,986.2,297.2,985.4,297.5z"/>
	<path class="st0" d="M982.7,319.5c-0.6-0.2-6.3-1-6.3-1l-0.4,1.9c0,0,2.2,0.8,3.6,0.7C981,320.9,983.7,319.8,982.7,319.5z"/>
	<path class="st0" d="M986.7,322.1c-0.6,0.7-2.9,0.1-3,0.8c-0.1,0.8-1.5,0.6-1.5,0.6s-1.4-0.6-1.4,0c0,0.7,0.8,0.8,1.4,1.6
		c0.6,0.8-0.3,0.8,0,1.7c0.3,0.9,0.7,2,0.7,2s-0.7,0,0,1c0.7,1.1,1.9,0.7,2.2,1.3c0.3,0.7-0.4,0.9,0.8,1.3c1.2,0.4,2.3-0.4,2.9,0
		c0.7,0.4,1.3,0.3,1.3-0.7c0-0.9,0.5-1.5,0.5-1.5s0.5-2.3,0.5-3c0-0.7,0.5-1.9,0.5-1.9s1-2.3,0-2.6
		C990.7,322.7,987.7,320.9,986.7,322.1z"/>
	<path class="st0" d="M996.8,327.3c-0.3,0.8,0.7,2.2,0,2.7c-0.7,0.5-1.2,1.2-1.6,1.3c-0.4,0.1-2.4-0.3-3.1,0.7
		c-0.7,0.9-1.1,1.7-1.1,2.7c0,0.9-1.8,1.6,0.6,1.7c2.4,0.1,2.4,0.3,3.8,0.8c1.3,0.5,2.8,1.3,2.8,0c0-1.3-0.9-1.7,0-2.8
		c0.9-1.1,2.7-1.2,2.9-0.1c0.3,1.1,2.1,2.1,2.5,2.1c0.4,0,0.7-2.4,1.3-2.1c0.7,0.3-0.7,1.1,0.8,1.3c1.5,0.3,3.6-1.8,3.8-3
		c0.3-1.1,0.8-0.6,0.8,0.3c0,0.8-0.1,2.6,0,3.1c0.1,0.5,2.7,0.1,2.8,0.8c0.1,0.7,0.5,1.9,0.5,1.9s1.7,0.2,1.7-1.3
		c0-1.5,0.7-2.1,1.5-1.2c0.8,0.9,0.8,3.6,0,3.7c-0.8,0.1-2.4-0.1-1.6,0.9c0.8,1.1,1.5,1.7,2.2,1.1c0.7-0.7,1.5-3.2,2.9-3.2
		c1.3-0.1,0.9,0.5,1.5,1.1c0.5,0.7,0.5,0.4,0,1.5c-0.5,1.1-0.9-0.3-1.7,0.9c-0.8,1.2,0.5,4.2-0.4,4.5c-0.9,0.3-1.1-3.1-2.5-2.4
		c-1.5,0.8-3.2,3.5-0.5,5.3c2.7,1.7,3.2,2.2,3.2,3c0,0.8-1.5,1.6,0.3,2.3c1.7,0.7,3.7,1.1,4.5,2.5c0.8,1.5,2.5,2.1,3.5,2.1
		c0.9,0,4-2.4,5.6-2s-0.3,2.1,2.1,2.7c2.4,0.5,3.5-1.2,4.6-1.2c1.2,0,0-1.5,2.1,0.3c2.1,1.7,5.8,1.8,6.6,1c0.8-0.8,3.6-2.1,5.7-2
		c2.1,0.1,3.7,1.1,4.9-0.1c1.2-1.2,1.7-2.4,2.4-1.2c0.7,1.2,3.8,0.4,3.8,0.4s-1.5,0.4,0-0.4c1.5-0.8,1.1-1.3,4.4-2.3
		c3.3-0.9,4-0.4,3.8,1.2c-0.1,1.6-0.3,1.2-0.7,1.9c-0.4,0.7-0.8,0.3,0.1,1.6c0.9,1.3,0.8,1.6,0.5,2.3c-0.3,0.7,1.6,0.9,0.2,1.7
		c-1.4,0.8-2.2,1.1-1.8,1.9c0.4,0.8,0.9,2,0.9,2s-2.4-2-3.6-1.3c-1.2,0.7-1.6,1.3-1.7,2.9c-0.1,1.6-2.7,1.9-2.7,1.9
		s-0.8,1.3-0.8,2.1c0,0.8-3.5,2.9-2.7,0.9c0.8-2,2.5-4.8,0.9-5c-1.6-0.3-1.6,1.9-2.3,2.3c-0.7,0.4-1.2-2.9-2.4-1.9s-0.9,3.5-2.7,3.5
		s-2.8,0.5-2.8-0.5c0-1.1,2.7-0.7,2.7-2c0-1.3,0-1.9-1.7-2.7c-1.7-0.8-0.3-2.7-0.7-2.8c-0.4-0.1-2.7-1.6-3.6,0
		c-0.9,1.6-3.3,1.9-5.2,4.8c-1.9,2.9-2.9,4.4-2.9,4.4s-3.7,1.6-5,1.2c-1.3-0.4-2.7-1.2-2.7-1.2s-0.3-1.5-1.2-0.9
		c-0.9,0.5-0.6,1.7-2.1,1.1c-1.5-0.7-2.7-2.7-4.6-2c-2,0.7-5.3,0.9-5.8,1.9c-0.5,0.9-3.8,1.9-0.4,3.3c3.5,1.5,4.8,0.7,7.3,1.5
		c2.5,0.8,4.9,3.8,6.5,5.4c1.6,1.6,0.1,2.4,2,4c1.9,1.6,1.1-1.6,3.5-0.7c2.4,0.9,4.4,0.7,3.2,2.3c-1.2,1.6-2.8,1.1-2,3
		c0.8,1.9,1.9,1.1,2.7,2.4c0.8,1.3,1.1,2.5,0.5,3.1c-0.5,0.5-0.5,1.3-1.7,1.6c-1.2,0.3-2.1-1.5-2.3,0c-0.1,1.5-0.9,3.2,1.2,6.5
		c2.1,3.3,2.1,4.8,3.1,5.8c0.9,1.1,3.1,0.7,3.1,0.7s1.1-2.8,1.7-1.9c0.7,0.9,2.4,2,3.3,0.8c0.9-1.2,1.6-1.6,2.3-2.9
		c0.7-1.3-0.1-2.7,1.5-3.2c1.6-0.5,2.4-1.2,2.4-1.2l-1.7-4.4l-0.3-1.3c0,0-0.9-1.2-0.8-1.6c0.1-0.4,1.5-0.8,1.5-0.8s0.5-0.9,0.9-0.8
		c0.4,0.1,0.7,1.3,0.7,1.3l1.6-0.5l-0.5-1.3l-2.1-1.3c0,0-1.5-1.3-1.1-1.9c0.4-0.5,0.1-1.1,1.2-1.1s1.9,0.3,1.9,0.3s1.5,0.9,1.9,0.9
		c0.4,0,0.7-0.1,0.9-0.7c0.3-0.5,0.8-2.8,0.8-2.8l0.5-2.5l-0.5-2.3c0,0,2.1-1.3,2.5-1.6c0.4-0.3,2.3-1.9,2.3-1.9s1.1-3.2,1.6-2.8
		c0.5,0.4,1.1,2.3,1.1,4.1c0,1.9-1.1,2.4-2.1,3.3c-1.1,0.9-2.7,2.7-2.7,2.7l-0.9,2.2c0,0,0.8,1.5,0.8,2.6c0,1.1-1.1-1.2-1.1,1.2
		c0,2.4-0.1,4.9,1.5,4.6c1.6-0.3,2.3-2,2.7-1.6c0.4,0.4,2.3,3.2,2.3,4.4s0.4,1.7,0.5,2.5c0.1,0.8,2.8-1.3,4.6-1.2
		c1.9,0.1,5.4,1.7,3.8,2.9c-1.6,1.2-1.9,2.4-0.7,2.5c1.2,0.1,2.4-3.2,3.2-2.5c0.8,0.7,5.2,1.6,5.6,2.9c0.4,1.3,0.8,3.3,1.7,1.6
		c0.9-1.7,3.2-2.7,4.1-2.7c0.9,0,8.2,0,8.1,1.1c-0.1,1.1,1.1,3.2-2.7,2.4c-3.7-0.8-4.8-1.9-4.6-0.4c0.1,1.5,2.7,4.5,2.7,4.5
		s4.4,2.4,5.7,4c1.3,1.6,2.4,2,4,2.8c1.6,0.8,5.2,0.3,8.2,0.5c3.1,0.3,0.7,0.7,3.2,1.2c2.5,0.5,5,0,5,0l6.2,2.5c0,0,3.1,0,5.3,1.2
		c2.3,1.2,1.3,1.2,4.2,2.7c2.9,1.5,6,1.3,6.5,1.3c0.5,0,0.1,1.3,1.3,1.5c1.2,0.1,1.9-2.3,2.5-2.1c0.7,0.1-0.3,2.8,1.3,3.2
		c1.6,0.4,2.5-2.3,3.6-1.6c1.1,0.7,0.7,2.3,2.7,2.4c2,0.1,6.2-0.5,6.2-0.5s-0.3,1.2,0,1.7c0.3,0.5,0.8,0.7,1.2,0.7s0.3-2.3,0.9-1.1
		c0.7,1.2,4.4,0.4,4.8,1.1c0.4,0.7,1.3-1.3,1.3,0c0,1.3,2.4,1.9,2.4,1.9l1.2-1.6c0,0,1.1,0.3,1.1,1.6s-0.1,4.6,0,5.2
		c0.1,0.5,1.6,2.1,1.6,2.1s1.2,0.1,1.1,0.7c-0.1,0.5,0.5,0.4,1.6,0.7c1.1,0.3,0.5,0.7,0.5,1.2s2.4,0.8,2.4,0.8s0.7,0.7,1.1,1.2
		c0.4,0.5,4,0,4,0s2.9-4.6,4.2-2.9c1.3,1.7-5.2,4.5-5.2,5c0,0.5,6.4-3.5,6.8-2.7c0.4,0.8-4,4.1-4.4,4.9c-0.4,0.8-2.7,1.2-2.7,1.9
		c0,0.7-1.1,1.3,0.9,2.1c2,0.8,3.7,0,3.7,0s2-2.8,2.4-2.1c0.4,0.7-1,1.4,0.8,1.8c1.7,0.4,3.5-1.2,3.5-1.2s4.2-0.4,4.9,0.7
		c0.7,1.1,2,1.7,0,2c-2,0.3-3.2-0.7-3.2,0.7c0,1.3,0.7,2.6-1.5,2.3c-2.1-0.3-3.2,2.2-3.2,2.2s-1.5-0.3-0.8,1.5s2.3,3.5,2.4,4.1
		c0.1,0.7-0.7,0.4-0.7,2.8c0,2.4-0.9,2.4,0.9,4.5c1.9,2.1,4.4,3.2,4.4,3.2s0.9,1.9,1.9,2.8c0.9,0.9,3.3,2.1,3.3,2.1s2.5,2.8,2.8,3.6
		c0.3,0.8,0-0.1,1.6,0.8c1.6,0.9,2.3,1.7,2.3,2.7c0,0.9-1.6,1.1-1.6,1.1l-3.6,0.4c0,0-2.5-1.1-3.2-0.8c-0.7,0.3-2.1-1.1-2.5,0.1
		c-0.4,1.2-0.7,1.7-0.1,2.4c0.5,0.7,1.6,0.8,2.8,2c1.2,1.2,2.5,2.8,3.3,3.6c0.8,0.8,1.9,1.2,1.6,1.6c-0.3,0.4-4.1-2-4.2,0
		c-0.1,2,6.2,4.8,5.6,5.7c-0.7,0.9-5.6-1.6-8.9-1.1c-3.3,0.5-9.8,1.1-10.5,2.4c-0.7,1.3-2.1,1.9-2.4,4.8c-0.3,2.9-1.5,3.2-2.7,4.6
		c-1.2,1.5-2.9,2.8-2.9,4.5c0,1.7,1.3,2.5,0,4c-1.3,1.5-3.1,3.1-4.1,4.2c-1.1,1.2-4.1,3.3-3.7,4c0.4,0.7,4.6,1.1,7.2,0.7
		c2.5-0.4,6-1.2,6-1.2s5.7,1.5,6.8,0.5c1.1-0.9,3.8-0.5,3.8-0.5l5.2,1.4c0,0,2.1-1.1,3.7-1.1c1.6,0,2.5-1.1,2.5-1.1s-2.4-2.1,1.3-4
		c3.7-1.9,5.7-2.7,5.7-2.7s0.1,0,1.9,1.9c1.7,1.9,14.5,0.4,15.1,0c0.7-0.4,1.9,0.3,3.2,1.2c1.3,0.9,4.4,2.1,4.4,2.1s5,2.7,6.9,5.7
		c1.9,3.1,5.3,4.9,6.4,7c1.1,2.1,2,3.8,3.2,5.3s3.5,3.1,4.9,3.7c1.5,0.7,4,2.7,4,1.2c0-1.5-1.3-60-1.3-60s-2.7-4.4-2.3-7.2
		c0.4-2.8,1.3-5.6,1.3-5.6l-1.5-111.2c0,0,0.5-2.7-0.3-2.5c-0.8,0.1-3.6,0.4-3.6,0.4l-1.7-2.8l-3.2-1.6h-8c0,0,0.9,0.5-1.6-1.1
		s-4.2-2.7-4.8-2.7c-0.5,0-1.5,1.7-4.8,0.9c-3.3-0.8-5.2-1.3-5.2-1.3s-25.2-11.8-25.6-12.1c-0.4-0.3-2.4-2.8-3.3-3.1
		c-0.9-0.3-5.7-1.7-7.4-2.4c-1.7-0.7-4.1-1.6-4.5-1.6c-0.4,0-4.1-1.6-4.1-1.6l-3.1-4c0,0-3.1-1.2-4.8-0.1c-1.7,1.1-7.6,3.2-9.3,4.5
		s-3.7,1.6-3.7,3.1c0,1.5-0.7,2.8-0.7,2.8s-2.4-3.6-2.8-1.6c-0.4,2,3.3,3.5,2,5.6c-1.3,2.1-2.8,3.3-3.7,3.8
		c-0.9,0.5-1.9,0.4-2.8,0.8c-0.9,0.4-1.3-1.1-2.8,0c-1.5,1.1-0.7,0.8-2.4,2.3c-1.7,1.5-3.8,2.3-4.8,2.1c-0.9-0.1-2-1.1-2.3-0.5
		c-0.3,0.5-2.3-1.1-2.3-1.1s-2.5-0.7-3.5,1.1c-0.9,1.7-3.6,3.8-4,6.2c-0.4,2.4,0.9,4.4-1.5,4.4s-4.4,0.1-5,1.6
		c-0.6,1.5-2.2,4.6-2.2,4.6s-0.7,1.5-1.2,2.1c-0.5,0.7-3.5,3.7-4.1,4.8c-0.7,1.1-2.9,1.5-3.8,2.5c-0.9,1.1-2.3,1.9-2.8,3.2
		c-0.5,1.3,1.6,3.5-1.6,2.9c-3.2-0.5-1.9-0.8-5.6-1.1c-3.7-0.3-5.6-1.6-5.6-1.6s-0.4-0.8-1.2-1.5c-0.8-0.7-3.6-1.2-3.6-1.2l-1.7-2.9
		c0,0,1.5-4.6,0.9-5c-0.5-0.4-3.3-0.5-3.8-0.3c-0.5,0.3-2-3.6-1.9-5.3c0.1-1.7-0.8-6.5-0.8-6.5s-1.9-2.4-3.1-0.3
		c-1.2,2.1,1.5,6,1.1,8c-0.4,2-1.3,4.2-2.3,1.9c-0.9-2.4-2.3-5.7-2.5-6.9c-0.3-1.2-2.3-3.3-2.3-3.3s-2.9-2.7-3.1-3.3
		c-0.1-0.7-1.1-1.7-1.1-3.3c0-1.6-0.1-3.3,0-3.8c0.1-0.5-1.1-3.3,0.3-5c1.3-1.7,2.4-2.5,1.2-2.7c-1.2-0.1-2.3,0.4-2.3-1.7
		c0-2.1-1.5-3.6,0.3-4.5c1.7-0.9,2.4-0.1,2.8-2.3c0.4-2.1-0.5-4.1,0.4-4.5c0.9-0.4,1.6-1.8,1.6-1.8l-2-4.1l-3.7-3.7l-0.3-4.2
		c0,0,0.9-0.5-1.5-2.1c-2.4-1.6-5.7-1.9-5.7-1.9h-7.3c0,0-4.9,0-6.5-2.9c-1.6-2.9-15-6.8-15-6.8s-2.9-2.4-4.8-1.9
		c-1.9,0.5-6.6,0.5-8.2,1.2c-1.6,0.7-4.4,2.4-4.4,2.4s-0.5,0-2.4,1.6c-1.9,1.6-3.3,2-4.2,2.7c-0.9,0.7-3.2,1.9-4.2,2.5
		c-1.1,0.7-3.3,1.9-3.3,1.9s-2.4,0.7-3.2,1c-0.8,0.3,0.9-1.7-0.5-1.7s-2.3,1.7-2.7,1.7c-0.4-0.1-3.2,1.3-3.2,1.3v1.3l1.3,2.6
		c0,0-1.1,0.3-1.4,1.1C998,325.6,996.8,327.3,996.8,327.3z"/>
	<path class="st0" d="M1099,325.6c-0.2-1.7-1.3-3.2-1.3-3.2s-1.6,0.4-1.7,2.5c-0.1,2.1,0.5,2.9,0.5,2.9S1099.1,326.5,1099,325.6z"/>
	<path class="st0" d="M1126.5,342.2c-1.3-0.1-2.1,0.5-4.9,0c-2.8-0.5-4-0.8-4.9-0.7c-0.9,0.1-1.3,0.9-1.3,0.9s7.4,1.4,8.5,2
		c1.1,0.7,1.9,0.9,4.4,1.7c2.5,0.8,3.7,1.3,5.2,1.7c1.5,0.4,1.9,0.5,3.6,0.7c1.7,0.1,1.2-0.9,3.6-0.7c2.4,0.3,4,1.4,4.9,0.7
		c0.9-0.7,3.1-1.1,3.1-1.1s3.6-1.9,1.3-2.4c-2.3-0.4-4.1-1.8-6.8-1.5c-2.7,0.3-1.6,0.7-4.5,0.1c-2.9-0.5-4.2-1.6-4.6-1.6
		c-0.4,0-1.9-0.7-2.8-0.1C1130.2,342.6,1126.5,342.2,1126.5,342.2z"/>
	<path class="st0" d="M1121.8,316.4h-2.1l-2.7-1.9l-3.3-0.4h-1.7c0,0,4.2,3.3,4.9,4.2c0.7,0.9,2.4,1.6,2.4,1.6s4.1-1.6,4.2-0.9
		c0.1,0.7-0.8,1.9-0.5,3.3c0.3,1.5,2.5,2.5,2.5,2.7c0,0.2-1.6-0.1-1.6,0.9c0,0.9-0.1,2.5,1.6,2.7c1.7,0.1,3.8-0.8,3.8-0.8l3.6,0.8
		c0,0,2.7-0.1,3.6-0.8c0.9-0.7,2.8-2,0.7-2.1c-2.1-0.1-3.9-0.5-4.3-1.3c-0.4-0.8-1.6-3.7-1.6-3.7l-4-2.4l-2.3-3.2
		C1125.1,315.1,1121.8,315.4,1121.8,316.4z"/>
	<path class="st0" d="M1084.3,352.6c0,0-1.2-0.3-1.6,0.8c-0.4,1.1-0.9,2.3,0,2.5c0.9,0.3,1.6-0.9,1.6-0.9S1086,353.4,1084.3,352.6z"
		/>
</g>
</svg>
